<?xml version="1.0" encoding="utf-8"?>
<!-- Generator: Adobe Illustrator 26.0.0, SVG Export Plug-In . SVG Version: 6.00 Build 0)  -->
<svg version="1.1" id="Layer_1" xmlns="http://www.w3.org/2000/svg" xmlns:xlink="http://www.w3.org/1999/xlink" x="0px" y="0px"
	 viewBox="0 0 483.5 124.8" style="enable-background:new 0 0 483.5 124.8;" xml:space="preserve">
<style type="text/css">
	.st0{fill:#5F9983;}
	.st1{clip-path:url(#SVGID_00000049926715582849531850000017326722280445470624_);}
	.st2{fill:#002E60;}
	.st3{fill:#9095A4;}
	.st4{fill:#5E9983;}
	.st5{font-family:'SourceSansPro-SemiBold';}
	.st6{font-size:36.4512px;}
	.st7{letter-spacing:1;}
</style>
<g id="Capa_8">
	<rect y="0.1" class="st0" width="118" height="124.8"/>
	<g>
		<defs>
			<rect id="SVGID_1_" width="118" height="124.8"/>
		</defs>
		<clipPath id="SVGID_00000090264991101669174890000011228988098686348204_">
			<use xlink:href="#SVGID_1_"  style="overflow:visible;"/>
		</clipPath>
		<g style="clip-path:url(#SVGID_00000090264991101669174890000011228988098686348204_);">
			<path class="st2" d="M227.6,69.6L227,68c-1.2-3.3-4.6-5.3-8.1-4.7c3.3-2,4.7-6,3.3-9.6l-0.6-1.6c-0.9-2.4-2.9-4.1-5.4-4.6
				c1-2,1.1-4.2,0.3-6.3l-0.6-1.6c-1.5-3.9-5.8-5.8-9.7-4.3c-0.1,0-0.1,0-0.2,0.1L149,58.4c-1.4-1.5-2.8-3-4.3-4.4l24.9-58.3
				c1.7-3.9-0.1-8.4-4-10.1c0,0,0,0-0.1,0l-1.6-0.6c-2.4-1-5-0.7-7.2,0.7c-0.4-2.5-2.1-4.6-4.5-5.6l-1.5-0.6c-3.2-1.3-6.8-0.3-9,2.4
				c0.9-3.6-0.9-7.4-4.4-8.9l-1.6-0.7c-3.9-1.6-8.4,0.3-10.1,4.2l-24.9,58.7c-2-0.1-4-0.1-6-0.1L73.2-21.2c-1.5-3.9-5.8-5.8-9.7-4.4
				c-0.1,0-0.1,0.1-0.2,0.1l-1.6,0.6c-2.7,1.1-4.6,3.6-4.9,6.5c-2.1-1.9-5.2-2.5-7.9-1.4L47.4-19c-2.7,1.1-4.6,3.7-4.9,6.7
				c-2.1-2-5.2-2.5-8-1.4L33-13.1c-4,1.6-6,6.1-4.4,10.2l21.4,55.8c-2.1,1.8-4.1,3.8-6,5.9L-9.2,35.4c-3.9-1.7-8.4,0.1-10.1,4.1
				l-0.7,1.6c-1,2.3-0.9,5,0.4,7.2c-2.5,0.5-4.6,2.2-5.7,4.5l-0.7,1.6c-1.4,3.2-0.6,6.9,2.1,9.1c-3.4-0.4-6.7,1.4-8.1,4.6l-0.7,1.6
				c-1.8,3.8-0.1,8.4,3.8,10.1c0,0,0,0,0,0l53.5,23.5c-0.2,2.4-0.2,4.8-0.2,7.1l-55.1,22.4c-3.9,1.6-5.9,6.1-4.4,10.1l0.6,1.6
				c0.9,2.4,3,4.2,5.5,4.7c-1.5,2.1-1.8,4.9-0.9,7.3l0.6,1.6c1.1,2.8,3.7,4.7,6.8,4.8c-2.2,2.2-2.9,5.4-1.8,8.3l0.6,1.6
				c1.5,3.9,5.8,5.8,9.7,4.4c0.1,0,0.1-0.1,0.2-0.1l54.9-22.3l0.7,0.8l125.2-52c0-0.3,0-0.6,0-1l56.3-22.9
				C227.2,78.1,229.2,73.6,227.6,69.6z M148.5,62.8c0.7,0.6,1.4,1.3,1.9,2.1l2.9-0.9c0-2.1,1.2-4,3.2-4.8l47.2-18.7
				c2.6-1,5.6,0.2,6.6,2.9c0,0,0,0,0,0c1.1,2.7-0.2,5.7-2.9,6.7c0,0,0,0,0,0l-47.1,18.7c-2,0.8-4.2,0.2-5.7-1.4l-2.7,1.2
				c0.4,2.6-0.2,5.2-1.9,7.3c-3.1,4-8.9,4.7-12.8,1.5c0,0,0,0-0.1,0c-4-3.2-4.6-9-1.5-13C138.8,60.5,144.5,59.8,148.5,62.8
				C148.5,62.9,148.5,62.9,148.5,62.8L148.5,62.8z M162-8.4c2.6,1.2,3.8,4.3,2.7,7l-20.4,47.7c-0.6,1.4-1.7,2.4-3.2,2.9
				c-1,2.7-3.8,9.9-10.6,12.5c0.5,1,0.8,2.1,0.9,3.3c0.4,5.1-3.4,9.5-8.4,9.9c-5.1,0.4-9.5-3.4-9.9-8.4c-0.4-5,3.2-9.3,8.2-9.8
				c2.1-0.2,4.2,0.3,6,1.5c4.8-1.6,7.6-7.9,8.5-10.3c-1.4-1.6-1.7-3.8-0.9-5.7l20.2-47.6c1.1-2.6,4-3.8,6.6-2.8
				C161.8-8.4,161.9-8.4,162-8.4L162-8.4z M147.8-14c2.6,1.2,3.8,4.3,2.7,7l-20.4,47.7c-0.8,1.9-2.7,3.2-4.9,3.1
				c-1.2,3-2.6,6-4.3,8.8c-0.8,1.4-2.8,2.1-5.8,5.1c-2.1,2.2-4.4,9.2-5.5,13c1.9,1.6,3,3.8,3.3,6.3c0.4,5.1-3.4,9.5-8.5,9.9
				c-5.1,0.4-9.5-3.4-9.9-8.5c-0.4-4.9,3.2-9.2,8-9.8c1.2-0.1,2.3,0,3.4,0.3c2.3-10.4,9.2-16.2,11.6-18.7c1.4-1.4,2.8-4.7,4.1-7.8
				c-1.6-1.6-2.1-3.9-1.2-6L141-11.3c1.1-2.6,4-3.8,6.6-2.7C147.6-14,147.7-14,147.8-14L147.8-14z M127.3-17.6
				c1.1-2.6,4-3.8,6.6-2.8c0.1,0,0.1,0,0.2,0.1c2.6,1.2,3.8,4.3,2.7,7l-20.4,47.7c-0.8,2-2.8,3.2-5,3.1l-1.1,2.9
				c2.1,1.6,3.5,4,3.8,6.6c0.4,5.1-3.4,9.5-8.4,9.9c-5.1,0.4-9.5-3.4-9.9-8.4c-0.4-5,3.2-9.3,8.2-9.8c0.9-0.1,1.9-0.1,2.8,0.1
				l1.4-2.7c-1.5-1.6-2-3.9-1.1-5.9L127.3-17.6z M63.3-22.1c2.6-1,5.6,0.4,6.6,3l18.6,47.5c0.5,1.4,0.5,2.9-0.2,4.3
				c1.1,2.6,4.2,9.6,1.2,16.2c1.1,0.3,2,0.9,2.9,1.6c4,3.2,4.6,9,1.5,13c-3.1,4-8.9,4.7-12.8,1.5c0,0,0,0-0.1,0c-4-3.2-4.6-9-1.5-13
				c1.3-1.7,3.1-2.8,5.2-3.3c2.3-4.5-0.1-10.8-1.2-13.2c-2-0.1-3.8-1.4-4.5-3.3L60.3-15.4C59.3-18,60.6-21,63.3-22.1L63.3-22.1z
				 M49.4-15.8c2.6-1,5.6,0.2,6.6,2.9c0,0,0,0,0,0l18.6,47.4c0.8,2,0.3,4.2-1.3,5.6c1.2,3,2.3,6,3.1,9.1c0.4,1.5-0.6,3.4-0.6,7.7
				c0,3,3.3,9.5,5.1,12.9c2.4-0.2,4.7,0.5,6.6,2c4,3.2,4.6,9,1.5,13c-3.1,4-8.9,4.7-12.8,1.5c0,0,0,0-0.1,0c-4-3.2-4.6-9-1.5-13
				c0.7-0.9,1.6-1.7,2.6-2.3c-5.6-8.8-4.8-17.8-4.7-21.2c0-1.8-1.2-5.2-2.6-8.3c-2.2,0.1-4.2-1.2-5-3.2L46.5-9.1
				C45.5-11.7,46.8-14.7,49.4-15.8z M51.2,43.9L32.5-3.5c-1.1-2.7,0.2-5.7,2.9-6.7c0,0,0,0,0,0c2.6-1,5.6,0.3,6.6,2.9c0,0,0,0,0,0
				l18.6,47.4c0.8,2,0.2,4.3-1.4,5.7l1.2,2.7c2.6-0.4,5.2,0.3,7.2,1.9c4,3.2,4.6,9,1.5,13c-3.1,4-8.9,4.7-12.8,1.5c0,0,0,0-0.1,0
				c-4-3.2-4.6-9-1.5-13c0.6-0.7,1.3-1.4,2-1.9L56,47.1C53.9,47.1,52,45.9,51.2,43.9L51.2,43.9z M-15.9,40.8
				c1.1-2.6,4.1-3.7,6.6-2.6c0,0,0,0,0.1,0l45.9,20.5c1.3,0.6,2.3,1.8,2.7,3.2c2.6,1,9.5,3.8,12.1,10.6c1-0.5,2-0.8,3.1-0.9
				c5-0.6,9.5,3.1,10.1,8.1c0.6,5-3.1,9.5-8.1,10.1c-5,0.6-9.5-3.1-10.1-8.1c0,0,0,0,0,0c-0.2-2.1,0.2-4.2,1.4-5.9
				c-1.5-4.8-7.6-7.6-9.9-8.5c-1.5,1.3-3.6,1.7-5.4,0.9l-45.8-20.5C-15.9,46.4-17.1,43.4-15.9,40.8L-15.9,40.8z M-21.3,54.9
				c1.1-2.6,4.1-3.8,6.6-2.7c0,0,0.1,0,0.1,0.1l45.9,20.5c1.9,0.9,3.1,2.8,3,4.8c2.9,1.2,5.8,2.7,8.5,4.3c1.4,0.8,2,2.8,4.9,5.8
				c2.1,2.1,8.8,4.4,12.5,5.5c1.5-1.8,3.6-3,6-3.3c5-0.6,9.5,3.1,10.1,8.1c0.6,5-3.1,9.5-8.1,10.1c-5,0.6-9.5-3.1-10.1-8.1
				c0,0,0,0,0,0c-0.1-1.1,0-2.3,0.3-3.4c-10-2.3-15.6-9.2-18-11.7c-1.2-1.4-4.5-2.8-7.5-4.1c-1.5,1.6-3.8,2.1-5.7,1.2l-45.9-20.5
				C-21.3,60.5-22.4,57.5-21.3,54.9L-21.3,54.9z M29.3,99c-0.1-0.9-0.1-1.9,0.1-2.8l-2.7-1.4c-1.5,1.5-3.7,1.9-5.7,1.1l-45.7-20.5
				c-2.6-1.2-3.7-4.2-2.6-6.8c1.1-2.6,4.1-3.7,6.6-2.6c0,0,0,0,0,0l45.9,20.5c1.9,0.9,3.1,2.9,2.9,5l2.7,1.1c3-4.1,8.7-5,12.8-2.1
				s5,8.7,2.1,12.8c-3,4.1-8.7,5-12.8,2.1C30.9,104,29.6,101.6,29.3,99L29.3,99z M-23.5,143.4c-2.7,0.8-5.5-0.8-6.3-3.5
				c-0.7-2.4,0.4-4.9,2.6-6l46.7-18.5c1.4-0.5,2.9-0.5,4.2,0.2c2.5-1.1,9.5-4.1,15.9-1.2c0.3-1,0.8-2,1.5-2.9
				c3.1-3.9,8.8-4.6,12.7-1.5c0,0,0,0,0.1,0.1c3.9,3.2,4.6,8.9,1.5,12.9c-3.1,3.9-8.9,4.6-12.8,1.4c-1.6-1.3-2.8-3.1-3.2-5.2
				c-4.5-2.3-10.7,0.1-13,1.2c-0.1,2-1.3,3.8-3.2,4.5L-23.5,143.4z M42.9,148.9c-0.7-0.6-1.4-1.2-1.9-2l-2.8,0.9
				c0,2.1-1.2,4-3.2,4.8l-46.7,18.4c-2.7,0.8-5.5-0.7-6.4-3.4c-0.7-2.4,0.4-4.9,2.6-6l46.7-18.5c2-0.8,4.2-0.2,5.6,1.4l2.7-1.2
				c-0.8-5,2.6-9.6,7.5-10.4c5-0.8,9.6,2.6,10.4,7.5c0.8,5-2.6,9.6-7.5,10.4C47.4,151.2,44.8,150.6,42.9,148.9L42.9,148.9z
				 M63.9,129.1c-0.9-0.7-1.7-1.6-2.2-2.6c-8.7,5.6-17.6,4.7-20.9,4.7c-1.8,0-5.2,1.2-8.2,2.5c0.1,2.2-1.2,4.2-3.2,5l-46.7,18.5
				c-2.7,0.8-5.5-0.7-6.4-3.4c-0.7-2.4,0.4-4.9,2.6-6l46.7-18.5c1.9-0.8,4.1-0.3,5.5,1.3c2.9-1.2,5.9-2.3,9-3
				c1.5-0.4,3.4,0.6,7.6,0.6c3,0,9.3-3.2,12.7-5.1c-0.5-5,3.1-9.4,8.1-10c2.4-0.2,4.7,0.4,6.6,1.9c3.9,3.2,4.6,8.9,1.5,12.9
				C73.5,131.6,67.8,132.2,63.9,129.1C63.9,129.1,63.9,129.1,63.9,129.1L63.9,129.1z M115.8,97.4c-4-3.2-4.6-9-1.5-13
				c3.1-4,8.9-4.6,12.9-1.5c0.9,0.7,1.7,1.6,2.3,2.6c8.7-5.7,17.7-4.8,21.1-4.8c1.8,0,5.2-1.3,8.3-2.6c-0.1-2.2,1.2-4.2,3.2-5
				l47.2-18.7c2.6-1,5.6,0.2,6.6,2.9c0,0,0,0,0,0c1.1,2.6-0.2,5.7-2.8,6.7c0,0,0,0,0,0l-47.2,18.7c-1.9,0.8-4.2,0.3-5.6-1.3
				c-3,1.3-6,2.3-9.1,3.1c-1.5,0.4-3.4-0.6-7.6-0.5c-3,0-9.5,3.3-12.8,5.2c0.5,5-3.2,9.5-8.2,10.1C120,99.6,117.7,98.9,115.8,97.4
				L115.8,97.4z M219.2,78L172,96.7c-1.4,0.5-2.9,0.5-4.2-0.2c-2.6,1.1-9.5,4.2-16.1,1.2c-0.3,1.1-0.9,2.1-1.6,2.9
				c-3.1,4-8.9,4.7-12.8,1.5c0,0,0,0-0.1,0c-4-3.2-4.6-9-1.5-13c3.1-4,8.8-4.7,12.8-1.6c1.7,1.3,2.9,3.3,3.4,5.4
				c4.5,2.3,10.8-0.1,13.1-1.2c0.1-2,1.3-3.8,3.2-4.6l47.1-18.8c2.6-1,5.6,0.3,6.6,2.9c0,0,0,0,0,0C223.1,73.9,221.8,76.9,219.2,78
				L219.2,78z"/>
			<path class="st2" d="M147.5,97.1c-1.7,2.2-4.9,2.6-7.1,0.9c0,0,0,0,0,0c-2.2-1.8-2.6-5-0.8-7.2c1.7-2.2,4.9-2.6,7.1-0.9
				c0,0,0,0,0,0C148.9,91.7,149.3,94.9,147.5,97.1z"/>
			
				<ellipse transform="matrix(1.919872e-03 -1 1 1.919872e-03 32.5751 211.1042)" class="st2" cx="122" cy="89.2" rx="5.1" ry="5.1"/>
			<path class="st2" d="M147.2,72.3c-1.7,2.2-4.9,2.6-7.1,0.8c0,0,0,0,0,0c-2.2-1.8-2.6-5-0.8-7.2c1.7-2.2,4.9-2.6,7.1-0.9
				c0,0,0,0,0,0C148.6,66.9,148.9,70.1,147.2,72.3z"/>
			<path class="st2" d="M90.4,52.6c2.2,1.8,2.6,5,0.8,7.2c-1.7,2.2-4.9,2.6-7.1,0.8c0,0,0,0,0,0c-2.2-1.8-2.6-5-0.8-7.2
				C85,51.2,88.2,50.8,90.4,52.6C90.4,52.6,90.4,52.6,90.4,52.6z"/>
			<path class="st2" d="M85.7,74.2c2.2,1.8,2.5,5,0.8,7.2c-1.7,2.2-4.9,2.6-7.1,0.9c0,0,0,0,0,0c-2.2-1.8-2.6-5-0.8-7.2
				C80.3,72.9,83.5,72.5,85.7,74.2C85.7,74.2,85.7,74.2,85.7,74.2z"/>
			<path class="st2" d="M65.7,52.9c2.2,1.8,2.5,5,0.8,7.2c-1.7,2.2-4.9,2.6-7.1,0.9c0,0,0,0,0,0c-2.2-1.8-2.6-5-0.8-7.2
				C60.3,51.6,63.5,51.2,65.7,52.9C65.7,52.9,65.7,52.9,65.7,52.9z"/>
			<path class="st2" d="M55.5,74.6c2.8-0.3,5.3,1.7,5.6,4.5c0.3,2.8-1.7,5.3-4.5,5.6c-2.8,0.3-5.3-1.7-5.6-4.5c0,0,0,0,0,0
				C50.8,77.4,52.7,74.9,55.5,74.6C55.5,74.6,55.5,74.6,55.5,74.6z"/>
			<path class="st2" d="M67.2,93.2c2.8-0.3,5.3,1.7,5.6,4.5c0.3,2.8-1.7,5.3-4.5,5.6c-2.8,0.3-5.3-1.7-5.6-4.5c0,0,0,0,0,0
				C62.4,96,64.4,93.5,67.2,93.2z"/>
			<path class="st2" d="M38.4,92.2c2.8-0.3,5.3,1.7,5.6,4.4c0.3,2.8-1.7,5.3-4.4,5.6c-2.8,0.3-5.3-1.7-5.6-4.4c0,0,0,0,0,0
				C33.7,95,35.6,92.5,38.4,92.2C38.4,92.2,38.4,92.2,38.4,92.2z"/>
			<path class="st2" d="M44.8,113.2c1.7-2.2,4.8-2.6,7-0.8c0,0,0,0,0,0c2.2,1.7,2.6,4.9,0.8,7.1c-1.7,2.2-4.8,2.5-7,0.8c0,0,0,0,0,0
				C43.5,118.5,43.1,115.4,44.8,113.2z"/>
			<path class="st2" d="M66.1,117.9c1.7-2.2,4.8-2.6,7-0.8c0,0,0,0,0,0c2.2,1.7,2.6,4.9,0.8,7.1c-1.7,2.2-4.8,2.5-7,0.8c0,0,0,0,0,0
				C64.8,123.2,64.4,120.1,66.1,117.9z"/>
			<path class="st2" d="M45.2,137.8c1.7-2.2,4.9-2.5,7-0.8c0,0,0,0,0,0c2.2,1.7,2.5,4.9,0.8,7.1c-1.7,2.2-4.9,2.5-7.1,0.8
				c0,0,0,0,0,0C43.9,143.1,43.5,140,45.2,137.8z"/>
			<path class="st2" d="M127.9,64.6c0.2,2.8-1.9,5.2-4.7,5.5c-2.8,0.2-5.2-1.9-5.5-4.7c-0.2-2.7,1.8-5.1,4.5-5.4
				C125.2,59.6,127.7,61.7,127.9,64.6z"/>
			<path class="st2" d="M109.4,76.6c0.2,2.8-1.9,5.2-4.7,5.4s-5.2-1.9-5.4-4.7c-0.2-2.7,1.8-5.1,4.5-5.4
				C106.6,71.7,109.1,73.8,109.4,76.6z"/>
			<path class="st2" d="M110.3,46.6c0.2,2.8-1.9,5.2-4.7,5.5c-2.8,0.2-5.2-1.9-5.5-4.7c-0.2-2.7,1.8-5.2,4.5-5.5
				C107.5,41.7,110,43.8,110.3,46.6z"/>
		</g>
	</g>
	<rect x="126.1" y="124.2" class="st3" width="6.7" height="2"/>
	<rect x="126.1" y="0.1" class="st4" width="6.6" height="124.7"/>
	<path d="M144.8,40.9c-0.3,0-0.7-0.1-0.9-0.3c-0.2-0.2-0.4-0.5-0.4-0.8v-31c0-0.3,0.1-0.6,0.4-0.8c0.3-0.2,0.6-0.3,0.9-0.3h7.7
		c1.6,0,3.2,0.3,4.6,1c1.4,0.6,2.5,1.7,3.3,3.1c0.9,1.7,1.3,3.7,1.2,5.6v13.8c0.1,2-0.3,3.9-1.2,5.7c-0.7,1.4-1.9,2.4-3.3,3.1
		c-1.5,0.7-3,1-4.6,1H144.8z M146.4,38.1h6.1c1.7,0.1,3.3-0.5,4.5-1.7c1.2-1.5,1.8-3.4,1.6-5.3V17.3c0.2-1.9-0.4-3.8-1.6-5.2
		c-1.2-1.2-2.9-1.8-4.5-1.7h-6.1V38.1z"/>
	<path d="M170.1,13c-0.5,0-1-0.2-1.4-0.6c-0.4-0.4-0.6-0.8-0.6-1.4c0-0.5,0.2-1,0.6-1.4c0.4-0.4,0.8-0.5,1.4-0.5
		c0.5,0,1,0.2,1.4,0.5c0.4,0.4,0.6,0.8,0.5,1.4c0,0.5-0.2,1-0.5,1.4C171,12.8,170.6,13,170.1,13z M170.1,40.9c-0.4,0-0.7-0.1-1-0.4
		c-0.3-0.2-0.4-0.5-0.4-0.8V20.5c0-0.3,0.2-0.6,0.4-0.8c0.3-0.2,0.6-0.3,1-0.3c0.4,0,0.7,0.1,1,0.3c0.3,0.2,0.4,0.5,0.4,0.8v19.2
		c0,0.3-0.2,0.6-0.4,0.8C170.8,40.7,170.4,40.9,170.1,40.9z"/>
	<path d="M184.9,41.2c-0.3,0-0.6-0.1-0.8-0.2c-0.2-0.1-0.4-0.3-0.5-0.5l-7-19.1c0-0.1-0.1-0.2-0.1-0.3c0-0.1,0-0.2,0-0.4
		c0-0.2,0.1-0.5,0.3-0.7c0.2-0.2,0.4-0.4,0.7-0.5c0.2-0.1,0.5-0.2,0.8-0.2c0.2,0,0.4,0.1,0.6,0.2c0.2,0.1,0.3,0.3,0.4,0.5l5.7,16.3
		l5.7-16.2c0-0.2,0.1-0.4,0.3-0.6c0.2-0.2,0.4-0.3,0.7-0.3c0.3,0,0.5,0.1,0.7,0.2c0.3,0.1,0.5,0.3,0.7,0.5c0.2,0.2,0.3,0.4,0.3,0.7
		c0,0.1,0,0.3,0,0.4c0,0.1-0.1,0.2-0.1,0.3l-7,19.2c-0.1,0.2-0.3,0.4-0.5,0.5C185.6,41.2,185.3,41.2,184.9,41.2z"/>
	<path d="M199.8,13c-1,0-1.8-0.9-1.9-1.9c0-0.5,0.2-1,0.6-1.4c0.8-0.7,1.9-0.7,2.7,0c0.4,0.4,0.6,0.8,0.5,1.4c0,0.5-0.2,1-0.5,1.4
		C200.8,12.9,200.3,13.1,199.8,13z M199.8,40.9c-0.4,0-0.7-0.1-1-0.4c-0.3-0.2-0.4-0.5-0.4-0.8V20.5c0-0.3,0.1-0.6,0.4-0.8
		c0.6-0.4,1.4-0.4,2,0c0.3,0.2,0.4,0.5,0.4,0.8v19.2c0,0.3-0.2,0.6-0.4,0.8C200.5,40.7,200.2,40.9,199.8,40.9z"/>
	<path d="M213.8,41.2c-1.2,0-2.4-0.2-3.6-0.5c-0.9-0.3-1.7-0.8-2.4-1.4c-0.5-0.3-0.8-0.9-0.9-1.4c0-0.2,0-0.4,0.1-0.6
		c0.1-0.2,0.2-0.4,0.4-0.5c0.1-0.1,0.3-0.2,0.5-0.2c0.4,0,0.8,0.2,1.1,0.5c0.5,0.4,1.1,0.8,1.6,1.1c0.9,0.4,2,0.6,3,0.5
		c1.2,0.1,2.5-0.2,3.5-1c0.6-0.6,1-1.4,1-2.3c0.1-0.8-0.2-1.7-0.8-2.3c-0.5-0.6-1.2-1.1-2-1.4c-0.9-0.3-1.7-0.6-2.6-0.9
		c-0.9-0.3-1.8-0.6-2.6-1c-0.8-0.4-1.5-1-2-1.7c-0.6-0.9-0.8-1.9-0.8-3c0-1,0.2-2,0.7-2.9c0.5-1,1.2-1.8,2.2-2.4
		c1.2-0.7,2.6-1,4-0.9c0.9,0,1.9,0.1,2.8,0.3c0.8,0.2,1.5,0.5,2.2,0.9c0.6,0.3,0.9,0.7,0.9,1.1c0,0.2-0.1,0.4-0.1,0.6
		c-0.1,0.2-0.2,0.5-0.4,0.7c-0.1,0.2-0.4,0.3-0.6,0.3c-0.3,0-0.7-0.2-0.9-0.3c-0.5-0.3-1-0.5-1.5-0.6c-0.7-0.2-1.4-0.3-2.2-0.3
		c-0.9,0-1.8,0.2-2.5,0.6c-0.6,0.3-1,0.8-1.4,1.4c-0.3,0.5-0.4,1-0.4,1.6c-0.1,0.7,0.2,1.5,0.8,2c0.6,0.5,1.3,0.9,2,1.1
		c0.8,0.3,1.7,0.6,2.6,0.8c0.9,0.3,1.8,0.6,2.6,1.1c0.8,0.5,1.5,1.1,2,1.9c0.5,1,0.8,2.1,0.8,3.3c0.1,1.6-0.6,3.2-1.8,4.3
		C217.6,40.7,215.7,41.3,213.8,41.2z"/>
	<path d="M228.1,13c-1.1,0-1.9-0.9-1.9-1.9c0-0.5,0.2-1,0.6-1.4c0.8-0.7,1.9-0.7,2.7,0c0.4,0.4,0.6,0.8,0.5,1.4c0,0.5-0.2,1-0.5,1.4
		C229.1,12.8,228.6,13,228.1,13z M228.1,40.9c-0.4,0-0.7-0.1-1-0.4c-0.3-0.2-0.4-0.5-0.4-0.8V20.5c0-0.3,0.1-0.6,0.4-0.8
		c0.6-0.4,1.4-0.4,2,0c0.3,0.2,0.4,0.5,0.4,0.8v19.2c0,0.3-0.2,0.6-0.4,0.8C228.8,40.7,228.4,40.9,228.1,40.9z"/>
	<path d="M244,41.2c-1.4,0-2.8-0.4-4.1-1.2c-1.2-0.8-2.3-1.9-3-3.2c-0.8-1.3-1.2-2.8-1.1-4.3v-4.9c0-1.5,0.4-2.9,1.1-4.2
		c0.7-1.3,1.8-2.3,3-3.1c2.5-1.6,5.7-1.6,8.2,0c1.2,0.8,2.3,1.8,3,3.1c0.8,1.3,1.2,2.8,1.1,4.3v4.9c0,1.5-0.4,2.9-1.1,4.2
		c-0.7,1.3-1.8,2.4-3,3.2C246.9,40.8,245.4,41.2,244,41.2z M244,38.5c1,0,1.9-0.3,2.7-0.8c0.8-0.6,1.5-1.3,1.9-2.2
		c0.5-0.9,0.7-1.9,0.7-2.9v-4.9c0-0.9-0.3-1.9-0.7-2.7c-0.5-0.9-1.1-1.6-2-2.2c-0.8-0.5-1.7-0.8-2.7-0.8c-1,0-1.9,0.3-2.7,0.8
		c-0.8,0.6-1.5,1.3-2,2.2c-0.5,0.8-0.7,1.8-0.7,2.7v4.9c0,1,0.3,2,0.7,2.9c0.5,0.9,1.1,1.6,2,2.2C242.1,38.2,243,38.5,244,38.5
		L244,38.5z M241.8,14.1c-0.3,0-0.6-0.2-0.8-0.4c-0.2-0.2-0.3-0.5-0.4-0.9c-0.1-0.4,0.1-0.7,0.4-0.9l4.9-2.7
		c0.1-0.1,0.2-0.1,0.4-0.1c0.3,0,0.6,0.2,0.8,0.4c0.2,0.2,0.3,0.5,0.3,0.9c0,0.4-0.2,0.8-0.5,1l-4.6,2.6L242,14L241.8,14.1z"/>
	<path d="M259.9,40.9c-0.4,0-0.7-0.1-1-0.4c-0.3-0.2-0.4-0.5-0.4-0.8V20.5c0-0.3,0.1-0.6,0.4-0.8c0.3-0.2,0.6-0.3,1-0.3
		c0.3,0,0.7,0.1,0.9,0.3c0.3,0.2,0.4,0.5,0.4,0.8v2.1c0.5-0.9,1.3-1.8,2.2-2.4c1.1-0.7,2.3-1.1,3.6-1.1c1.4,0,2.7,0.4,3.8,1.2
		c1.2,0.8,2.1,1.8,2.8,3.1c0.7,1.3,1.1,2.8,1.1,4.3v12.1c0,0.4-0.2,0.7-0.4,0.9c-0.3,0.2-0.6,0.3-1,0.3c-0.3,0-0.7-0.1-0.9-0.3
		c-0.3-0.2-0.5-0.5-0.4-0.9V27.6c0-0.9-0.3-1.9-0.7-2.7c-0.5-0.9-1.1-1.6-2-2.2c-0.8-0.6-1.7-0.9-2.7-0.8c-0.9,0-1.7,0.2-2.5,0.7
		c-0.8,0.5-1.5,1.2-1.9,2c-0.5,0.9-0.8,2-0.8,3.1v12.1c0,0.3-0.2,0.6-0.4,0.8C260.6,40.8,260.3,40.9,259.9,40.9z"/>
	<path d="M291.7,40.9c-0.3,0-0.5-0.1-0.7-0.2c-0.3-0.1-0.5-0.3-0.7-0.5c-0.2-0.2-0.3-0.4-0.3-0.7c0-0.1,0-0.2,0-0.3l9.1-30.8
		c0.1-0.3,0.3-0.6,0.6-0.8c0.3-0.2,0.7-0.3,1-0.3c0.4,0,0.8,0.1,1.1,0.3c0.3,0.2,0.5,0.4,0.6,0.8l9,30.8c0,0.1,0,0.2,0,0.3
		c0,0.2-0.1,0.5-0.3,0.7c-0.2,0.2-0.4,0.4-0.6,0.5c-0.3,0.1-0.5,0.2-0.8,0.2c-0.2,0-0.5-0.1-0.6-0.2c-0.2-0.1-0.4-0.3-0.4-0.6l-2-7
		h-12l-2,7c-0.1,0.2-0.2,0.5-0.4,0.6C292.2,40.8,292,40.9,291.7,40.9z M295.6,30.5h10.5l-5.3-18.3L295.6,30.5z"/>
	<path d="M324.6,41.2c-1.6,0.1-3.3-0.3-4.7-1.1c-1.2-0.7-2.2-1.8-2.8-3.1c-0.6-1.4-0.9-2.9-0.9-4.4v-4.9c0-1.5,0.3-3,0.9-4.3
		c0.6-1.3,1.5-2.4,2.7-3.1c1.5-0.8,3.1-1.2,4.8-1.1c1.1,0,2.2,0.1,3.2,0.5c0.8,0.2,1.5,0.6,2.1,1.2c0.4,0.3,0.7,0.8,0.8,1.4
		c0,0.2-0.1,0.4-0.1,0.6c-0.1,0.2-0.2,0.4-0.4,0.6c-0.2,0.2-0.4,0.3-0.6,0.3c-0.3,0-0.7-0.2-0.9-0.4c-0.4-0.3-0.9-0.6-1.4-0.8
		c-0.8-0.3-1.6-0.4-2.5-0.4c-1.6-0.1-3.1,0.5-4.3,1.6c-1,1.2-1.5,2.7-1.4,4.3v4.9c-0.1,1.6,0.4,3.1,1.4,4.3c1.1,1.1,2.7,1.7,4.3,1.6
		c0.9,0,1.8-0.1,2.6-0.4c0.5-0.2,0.9-0.5,1.4-0.9c0.2-0.3,0.6-0.4,0.9-0.4c0.2,0,0.5,0.1,0.7,0.2c0.2,0.1,0.3,0.3,0.4,0.6
		c0.1,0.2,0.2,0.4,0.1,0.7c-0.1,0.5-0.3,1-0.8,1.4c-0.6,0.5-1.4,0.9-2.2,1.2C326.8,41.1,325.7,41.2,324.6,41.2z"/>
	<path d="M341,41.2c-1.5,0-3-0.5-4.2-1.5c-1.2-1.2-1.9-2.8-1.7-4.5c-0.1-1.4,0.4-2.8,1.3-3.8c1-1,2.2-1.6,3.6-1.9
		c1.7-0.4,3.5-0.5,5.3-0.5h2.2v-1.1c0-1-0.2-2-0.5-2.9c-0.3-0.9-0.9-1.7-1.6-2.4c-0.9-0.7-1.9-1-3-0.9c-0.8,0-1.6,0.1-2.3,0.3
		c-0.5,0.2-1,0.4-1.4,0.7c-0.2,0.2-0.5,0.3-0.9,0.3c-0.4,0-0.7-0.2-0.8-0.5c-0.2-0.3-0.3-0.7-0.3-1.1c0-0.4,0.3-0.8,0.9-1.1
		c0.7-0.4,1.5-0.7,2.3-0.9c0.9-0.2,1.8-0.3,2.7-0.3c1.6-0.1,3.3,0.4,4.6,1.2c1.1,0.8,2,2,2.5,3.3c0.5,1.4,0.8,2.8,0.8,4.3v11.8
		c0,0.3-0.1,0.6-0.4,0.8c-0.3,0.2-0.7,0.4-1,0.4c-0.3,0-0.7-0.1-0.9-0.4c-0.3-0.2-0.4-0.5-0.4-0.8v-2c-0.8,0.9-1.7,1.7-2.7,2.4
		C343.7,40.8,342.4,41.2,341,41.2z M341.7,38.7c1,0,1.9-0.3,2.7-0.8c0.8-0.5,1.6-1.1,2.1-1.9c0.5-0.6,0.8-1.3,0.8-2.1V31h-1.8
		c-1.2,0-2.5,0.1-3.7,0.2c-1,0.1-2,0.5-2.9,1.1c-0.8,0.6-1.2,1.6-1.1,2.6c-0.1,1.1,0.3,2.1,1.1,2.9
		C339.8,38.4,340.7,38.7,341.7,38.7L341.7,38.7z"/>
	<path d="M364,41.2c-1.4,0-2.7-0.4-3.8-1.2c-1.2-0.8-2.2-1.9-2.8-3.2c-0.7-1.3-1-2.8-1-4.2v-4.9c0-1.5,0.3-3,1-4.3
		c0.7-1.2,1.6-2.3,2.8-3.1c1.2-0.8,2.5-1.2,3.9-1.2c1.3,0,2.5,0.3,3.6,1.1c0.9,0.6,1.6,1.4,2.1,2.4V7.3c0-0.3,0.2-0.6,0.4-0.8
		c0.3-0.2,0.6-0.3,1-0.3c0.4,0,0.7,0.1,1,0.3c0.2,0.2,0.4,0.5,0.4,0.8v32.4c0,0.3-0.1,0.6-0.4,0.8c-0.3,0.3-0.6,0.4-1,0.4
		c-0.3,0-0.7-0.1-0.9-0.4c-0.2-0.2-0.4-0.5-0.4-0.8v-2c-0.5,1-1.3,1.9-2.3,2.5C366.5,40.8,365.3,41.2,364,41.2z M364.4,38.5
		c1,0,1.9-0.3,2.7-0.8c0.7-0.5,1.4-1.2,1.9-1.9c0.4-0.5,0.6-1.1,0.7-1.8v-6.3c0-1.1-0.2-2.2-0.8-3.1c-0.5-0.8-1.2-1.5-2-2
		c-0.8-0.5-1.6-0.7-2.5-0.7c-1,0-1.9,0.3-2.7,0.8c-0.8,0.6-1.5,1.3-1.9,2.2c-0.5,0.8-0.7,1.8-0.7,2.7v4.9c0,1,0.3,2,0.7,2.9
		c0.5,0.9,1.1,1.6,1.9,2.2C362.5,38.2,363.5,38.5,364.4,38.5L364.4,38.5z"/>
	<path d="M388.3,41.2c-1.7,0-3.3-0.3-4.8-1.1c-1.4-0.7-2.5-1.7-3.3-3c-0.8-1.4-1.2-2.9-1.2-4.5v-5.1c0-1.5,0.4-2.9,1.1-4.2
		c0.7-1.3,1.8-2.3,3-3c2.5-1.5,5.6-1.5,8.1-0.1c1.2,0.7,2.2,1.7,3,2.9c0.8,1.3,1.2,2.8,1.1,4.3c0.1,0.9-0.1,1.7-0.6,2.5
		c-0.3,0.5-0.8,0.8-1.4,0.9c-0.6,0.1-1.2,0.2-1.8,0.2h-9.8v1.7c-0.1,1.6,0.6,3.2,1.9,4.3c1.3,1.1,3,1.6,4.7,1.6
		c0.9,0,1.8-0.1,2.7-0.4c0.5-0.2,1-0.5,1.5-0.9c0.3-0.3,0.6-0.4,1-0.5c0.2,0,0.5,0.1,0.6,0.2c0.2,0.2,0.3,0.4,0.4,0.6
		c0.1,0.2,0.2,0.4,0.2,0.6c0,0.3-0.3,0.7-0.8,1.2c-0.7,0.6-1.4,1-2.3,1.2C390.6,41,389.4,41.2,388.3,41.2z M381.8,28.8h8.7
		c0.6,0.1,1.2,0,1.7-0.3c0.3-0.3,0.5-0.8,0.4-1.3c0-0.9-0.2-1.9-0.7-2.7c-0.4-0.9-1.1-1.6-1.9-2.1c-1.7-1.1-3.8-1.1-5.6-0.1
		c-0.8,0.5-1.5,1.2-2,2c-0.5,0.8-0.7,1.8-0.7,2.8L381.8,28.8z M384.9,14c-0.3,0-0.6-0.2-0.8-0.4c-0.2-0.2-0.3-0.5-0.3-0.9
		c0-0.3,0.2-0.7,0.5-0.8l4.9-2.7c0.1-0.1,0.2-0.1,0.4-0.1c0.3,0,0.6,0.2,0.8,0.4c0.2,0.2,0.3,0.5,0.3,0.9c0,0.4-0.2,0.8-0.5,1
		l-4.6,2.6c-0.1,0-0.1,0.1-0.2,0.1L384.9,14z"/>
	<path d="M402.6,40.9c-0.4,0-0.7-0.1-1-0.4c-0.3-0.2-0.4-0.5-0.4-0.8V20.5c0-0.3,0.1-0.6,0.4-0.8c0.3-0.2,0.6-0.3,1-0.3
		c0.3,0,0.7,0.1,1,0.3c0.3,0.2,0.4,0.5,0.4,0.8v2.1c0.5-0.9,1.3-1.8,2.2-2.4c1-0.7,2.3-1.1,3.6-1.1c1.4,0,2.7,0.4,3.8,1.3
		c1.1,0.9,1.9,2,2.4,3.3c0.6-1.4,1.6-2.6,2.9-3.4c2.2-1.4,5-1.5,7.2-0.1c1.1,0.7,2.1,1.7,2.7,2.9c0.7,1.4,1.1,3,1,4.6v12.1
		c0,0.3-0.2,0.6-0.4,0.8c-0.6,0.5-1.4,0.5-2,0c-0.3-0.2-0.4-0.5-0.4-0.8V27.6c0-1.1-0.2-2.2-0.7-3.2c-0.4-0.8-1.1-1.5-1.9-1.9
		c-1.5-0.9-3.3-0.9-4.8,0c-0.8,0.5-1.4,1.1-1.9,1.9c-0.5,0.9-0.8,1.9-0.8,3v12.3c0,0.3-0.2,0.7-0.5,0.9c-0.3,0.2-0.6,0.3-1,0.3
		c-0.3,0-0.7-0.1-0.9-0.3c-0.3-0.2-0.5-0.5-0.4-0.9V27.4c0-1-0.2-2-0.7-2.9c-0.4-0.8-1-1.5-1.8-2c-0.7-0.5-1.6-0.7-2.5-0.7
		c-0.9,0-1.7,0.2-2.4,0.7c-0.8,0.5-1.5,1.2-1.9,2c-0.5,1-0.8,2-0.8,3.1v12.1c0,0.3-0.2,0.6-0.4,0.8C403.4,40.7,403,40.9,402.6,40.9z
		"/>
	<path d="M438.1,13c-1.1,0-1.9-0.9-1.9-1.9c0-0.5,0.2-1,0.6-1.4c0.8-0.7,1.9-0.7,2.7,0c0.4,0.4,0.6,0.8,0.5,1.4c0,0.5-0.2,1-0.5,1.4
		C439.1,12.8,438.6,13,438.1,13z M438.1,40.9c-0.4,0-0.7-0.1-1-0.4c-0.3-0.2-0.4-0.5-0.4-0.8V20.5c0-0.3,0.1-0.6,0.4-0.8
		c0.3-0.2,0.6-0.3,1-0.3c0.4,0,0.7,0.1,1,0.3c0.3,0.2,0.4,0.5,0.4,0.8v19.2c0,0.3-0.2,0.6-0.4,0.8C438.8,40.7,438.5,40.9,438.1,40.9
		z"/>
	<path d="M454.3,41.2c-1.6,0.1-3.3-0.3-4.7-1.1c-1.2-0.7-2.2-1.8-2.8-3.1c-0.6-1.4-0.9-2.9-0.9-4.4v-4.9c0-1.5,0.3-3,0.9-4.3
		c0.6-1.3,1.5-2.4,2.8-3.1c1.5-0.8,3.1-1.2,4.8-1.1c1.1,0,2.2,0.1,3.2,0.5c0.8,0.2,1.5,0.6,2.1,1.2c0.4,0.3,0.7,0.8,0.8,1.4
		c0,0.2-0.1,0.4-0.1,0.6c-0.1,0.2-0.2,0.4-0.4,0.6c-0.2,0.2-0.4,0.3-0.6,0.3c-0.3,0-0.7-0.2-0.9-0.4c-0.4-0.3-0.9-0.6-1.4-0.8
		c-0.8-0.3-1.6-0.4-2.5-0.4c-1.6-0.1-3.1,0.5-4.3,1.6c-1,1.2-1.5,2.7-1.4,4.3v4.9c-0.1,1.6,0.4,3.1,1.4,4.3c1.1,1.1,2.7,1.7,4.3,1.6
		c0.9,0,1.8-0.1,2.6-0.4c0.5-0.2,0.9-0.5,1.4-0.9c0.2-0.3,0.6-0.4,0.9-0.4c0.2,0,0.5,0.1,0.7,0.2c0.2,0.1,0.3,0.3,0.4,0.6
		c0.1,0.2,0.2,0.4,0.1,0.7c-0.1,0.5-0.3,1-0.8,1.4c-0.6,0.5-1.4,0.9-2.2,1.2C456.5,41.1,455.4,41.2,454.3,41.2z"/>
	<path d="M470.6,41.2c-1.5,0-3-0.5-4.2-1.5c-1.2-1.2-1.9-2.8-1.7-4.5c-0.1-1.4,0.4-2.8,1.3-3.8c1-1,2.2-1.6,3.6-1.9
		c1.7-0.4,3.5-0.5,5.3-0.5h2.2v-1.1c0-1-0.2-2-0.5-2.9c-0.3-0.9-0.9-1.7-1.6-2.4c-0.9-0.7-1.9-1-3-0.9c-1.3-0.1-2.6,0.3-3.8,1
		c-0.2,0.2-0.5,0.3-0.9,0.3c-0.4,0-0.7-0.2-0.8-0.5c-0.2-0.3-0.3-0.7-0.3-1.1c0-0.4,0.3-0.8,0.9-1.1c0.7-0.4,1.5-0.7,2.3-0.9
		c0.9-0.2,1.8-0.3,2.7-0.3c1.6-0.1,3.3,0.4,4.6,1.2c1.1,0.8,2,2,2.5,3.3c0.5,1.4,0.8,2.8,0.8,4.3v11.8c0,0.3-0.1,0.6-0.4,0.8
		c-0.3,0.2-0.7,0.4-1,0.4c-0.3,0-0.7-0.1-0.9-0.4c-0.3-0.2-0.4-0.5-0.4-0.8v-2c-0.8,0.9-1.7,1.7-2.7,2.4
		C473.3,40.8,472,41.2,470.6,41.2z M471.3,38.7c1,0,1.9-0.3,2.7-0.8c0.8-0.5,1.6-1.1,2.1-1.9c0.5-0.6,0.8-1.3,0.8-2.1V31h-1.8
		c-1.2,0-2.5,0.1-3.7,0.2c-1,0.1-2,0.5-2.9,1.1c-0.8,0.6-1.2,1.6-1.1,2.6c-0.1,1.1,0.3,2.1,1.1,2.9
		C469.4,38.4,470.3,38.7,471.3,38.7z"/>
	<path d="M148.3,74.3c-1.2,0-2.4-0.4-3.4-1.1c-2.2-1.7-3.5-4.3-3.5-7v-3.8c0-1.4,0.3-2.8,1-4.1c0.6-1.2,1.5-2.2,2.5-2.9
		c1-0.7,2.2-1.1,3.5-1.1c1.1,0,2.3,0.3,3.2,1c0.8,0.6,1.5,1.3,1.9,2.2V44.3c0-0.4,0.2-0.8,0.6-1c0.5-0.3,1-0.4,1.5-0.4
		c0.5,0,1,0.1,1.4,0.4c0.4,0.2,0.6,0.6,0.6,1v28.2c0,0.4-0.2,0.8-0.6,1c-0.4,0.3-0.9,0.5-1.4,0.4c-0.5,0-1-0.1-1.4-0.4
		c-0.3-0.2-0.5-0.6-0.6-1v-1.4c-0.5,0.9-1.2,1.7-2.1,2.2C150.6,74,149.5,74.3,148.3,74.3z M149.5,70.5c0.7,0,1.4-0.2,2-0.7
		c0.6-0.4,1-0.9,1.4-1.5c0.3-0.4,0.5-0.9,0.5-1.4v-4.7c0-0.8-0.2-1.6-0.6-2.3c-0.4-0.6-0.9-1.1-1.5-1.5c-0.6-0.3-1.2-0.5-1.9-0.5
		c-0.7,0-1.4,0.2-2,0.6c-1.2,0.8-2,2.2-2,3.7v3.8c0,0.7,0.2,1.4,0.5,2.1c0.3,0.7,0.8,1.2,1.4,1.6C148.1,70.2,148.8,70.5,149.5,70.5
		L149.5,70.5z"/>
	<path d="M172.1,74.3c-1.6,0-3.2-0.3-4.7-1c-1.3-0.6-2.4-1.6-3.2-2.9c-0.8-1.3-1.2-2.8-1.2-4.3v-3.9c0-1.4,0.4-2.8,1.1-4.1
		c0.7-1.2,1.8-2.2,3-2.9c2.5-1.4,5.5-1.4,8-0.1c1.2,0.6,2.1,1.6,2.8,2.7c0.7,1.2,1.1,2.6,1.1,4c0.1,0.9-0.1,1.7-0.5,2.5
		c-0.3,0.5-0.8,0.8-1.4,0.9c-0.6,0.1-1.1,0.2-1.7,0.2h-8.3v0.9c-0.1,1.3,0.5,2.5,1.4,3.3c1,0.8,2.3,1.3,3.7,1.2
		c0.8,0,1.5-0.1,2.2-0.4c0.5-0.2,1-0.5,1.5-0.8c0.3-0.2,0.7-0.4,1.1-0.4c0.3,0,0.6,0.1,0.9,0.3c0.2,0.2,0.4,0.5,0.6,0.8
		c0.1,0.3,0.2,0.5,0.2,0.8c-0.1,0.5-0.4,1-0.8,1.4c-0.7,0.6-1.4,1-2.3,1.3C174.5,74.2,173.3,74.3,172.1,74.3z M167.1,62.7h6.5
		c0.4,0,0.8,0,1.2-0.2c0.2-0.3,0.3-0.6,0.3-1c0-0.7-0.2-1.4-0.5-2c-0.3-0.6-0.8-1.1-1.4-1.4c-0.6-0.3-1.3-0.5-2-0.5
		c-0.7,0-1.4,0.2-2,0.5c-0.6,0.3-1.1,0.8-1.5,1.4c-0.4,0.6-0.6,1.3-0.5,2L167.1,62.7z"/>
	<path d="M201.5,74c-0.5,0-1-0.1-1.4-0.4c-0.4-0.2-0.7-0.6-0.6-1.1V47.9h-6.1c-0.4,0-0.8-0.2-1-0.6c-0.2-0.4-0.3-0.9-0.4-1.4
		c0-0.5,0.1-0.9,0.3-1.4c0.2-0.4,0.6-0.6,1-0.6h16.3c0.4,0,0.9,0.2,1.1,0.6c0.2,0.4,0.3,0.9,0.3,1.4c0,0.5-0.1,1-0.3,1.4
		c-0.2,0.4-0.6,0.6-1,0.6h-6v24.6c0,0.5-0.2,0.9-0.6,1.1C202.5,73.9,202,74,201.5,74z"/>
	<path d="M220.1,74.3c-1.6,0-3.2-0.3-4.7-1c-1.3-0.6-2.4-1.6-3.2-2.9c-0.8-1.3-1.2-2.8-1.2-4.3v-3.9c0-1.4,0.4-2.8,1.1-4.1
		c0.7-1.2,1.7-2.2,3-2.9c1.2-0.7,2.6-1.1,4.1-1.1c1.4,0,2.7,0.3,3.9,1c1.2,0.6,2.2,1.6,2.8,2.7c0.7,1.2,1.1,2.6,1.1,3.9
		c0.1,0.9-0.1,1.7-0.5,2.5c-0.3,0.5-0.8,0.8-1.4,0.9c-0.6,0.1-1.1,0.2-1.7,0.2H215v0.9c-0.1,1.3,0.5,2.5,1.4,3.3
		c1,0.8,2.3,1.3,3.7,1.2c0.8,0,1.5-0.1,2.2-0.4c0.5-0.2,1-0.5,1.4-0.8c0.3-0.2,0.7-0.4,1.1-0.4c0.3,0,0.6,0.1,0.9,0.3
		c0.2,0.2,0.4,0.5,0.6,0.8c0.1,0.3,0.2,0.5,0.2,0.8c-0.1,0.5-0.4,1-0.8,1.4c-0.7,0.6-1.4,1-2.3,1.3
		C222.4,74.1,221.3,74.3,220.1,74.3z M215.1,62.7h6.5c0.4,0,0.8,0,1.2-0.2c0.2-0.3,0.3-0.6,0.3-1c0-0.7-0.2-1.4-0.5-2
		c-0.3-0.6-0.8-1.1-1.4-1.4c-0.6-0.3-1.3-0.5-2.1-0.5c-0.7,0-1.4,0.2-2,0.5c-0.6,0.3-1.1,0.8-1.5,1.4c-0.4,0.6-0.6,1.3-0.6,2
		L215.1,62.7z"/>
	<path d="M239.6,74.3c-1.6,0.1-3.2-0.3-4.6-1.1c-1.2-0.7-2.1-1.7-2.7-2.9c-0.6-1.3-0.9-2.7-0.9-4.2v-3.7c0-1.4,0.3-2.9,0.9-4.2
		c0.6-1.2,1.5-2.3,2.7-2.9c1.4-0.8,3-1.1,4.6-1.1c1.1,0,2.1,0.1,3.2,0.4c0.8,0.2,1.5,0.6,2.1,1.1c0.5,0.3,0.7,0.9,0.8,1.4
		c0,0.3-0.1,0.6-0.2,0.9c-0.1,0.3-0.3,0.6-0.6,0.9c-0.2,0.2-0.5,0.4-0.9,0.4c-0.3,0-0.6-0.1-0.9-0.3c-0.4-0.3-0.8-0.5-1.2-0.6
		c-0.6-0.2-1.3-0.3-2-0.3c-1.2-0.1-2.4,0.3-3.3,1.1c-0.7,0.9-1.1,2-1.1,3.2v3.7c-0.1,1.2,0.3,2.3,1.1,3.2c0.9,0.8,2.1,1.3,3.3,1.2
		c0.7,0,1.4-0.1,2-0.4c0.4-0.2,0.8-0.4,1.2-0.7c0.3-0.2,0.6-0.3,0.9-0.3c0.4,0,0.7,0.1,1,0.3c0.3,0.2,0.5,0.5,0.6,0.8
		c0.1,0.3,0.2,0.6,0.2,0.9c-0.1,0.6-0.3,1.1-0.8,1.4c-0.6,0.5-1.4,1-2.2,1.2C241.8,74.2,240.7,74.3,239.6,74.3z"/>
	<path d="M252.6,74c-0.5,0-1-0.1-1.5-0.4c-0.3-0.2-0.5-0.6-0.6-1V55.9c0-0.4,0.2-0.8,0.6-1c0.4-0.3,1-0.4,1.5-0.4
		c0.5,0,1,0.1,1.4,0.4c0.3,0.2,0.6,0.6,0.6,1v1.5c0.5-0.9,1.1-1.6,1.9-2.2c1-0.7,2.1-1,3.3-1c1.2,0,2.4,0.4,3.4,1.1
		c1.1,0.8,1.9,1.8,2.5,2.9c0.6,1.3,1,2.6,0.9,4.1v10.2c0,0.5-0.2,0.9-0.6,1.1c-0.9,0.5-1.9,0.5-2.8,0c-0.4-0.2-0.7-0.6-0.7-1.1V62.3
		c0-1.5-0.7-2.8-2-3.7c-0.6-0.4-1.3-0.6-2-0.6c-0.6,0-1.3,0.2-1.8,0.5c-0.6,0.4-1.1,0.9-1.4,1.5c-0.4,0.7-0.6,1.5-0.6,2.3v10.2
		c0,0.4-0.3,0.8-0.6,1C253.6,73.8,253.1,74,252.6,74z"/>
	<path d="M279.7,74.3c-1.4,0-2.8-0.4-4-1.1c-1.2-0.8-2.2-1.8-3-3c-0.7-1.2-1.1-2.6-1.1-4.1v-3.8c0-1.4,0.4-2.8,1.1-4.1
		c0.7-1.2,1.7-2.2,3-3c1.2-0.7,2.6-1.1,4.1-1.1c1.4,0,2.8,0.4,4.1,1.1c1.2,0.7,2.2,1.7,3,2.9c0.7,1.2,1.1,2.6,1.1,4.1V66
		c0,1.4-0.4,2.8-1.1,4.1c-0.7,1.2-1.8,2.3-3,3.1C282.5,73.9,281.1,74.3,279.7,74.3z M279.7,70.5c0.7,0,1.4-0.2,2-0.6
		c0.6-0.4,1.1-1,1.5-1.6c0.4-0.6,0.6-1.4,0.6-2.1v-3.8c0-0.7-0.2-1.4-0.6-2.1c-0.4-0.6-0.9-1.2-1.5-1.6c-1.2-0.8-2.8-0.8-4.1,0
		c-0.6,0.4-1.1,1-1.4,1.6c-0.3,0.6-0.5,1.3-0.5,2.1v3.8c0,0.7,0.2,1.5,0.5,2.1c0.3,0.6,0.8,1.2,1.4,1.6
		C278.3,70.3,279,70.5,279.7,70.5L279.7,70.5z"/>
	<path d="M295.6,74c-0.5,0-1-0.1-1.5-0.4c-0.3-0.2-0.5-0.6-0.6-1V44.3c0-0.4,0.2-0.8,0.6-1c0.4-0.3,1-0.4,1.5-0.4
		c0.5,0,1,0.1,1.5,0.4c0.4,0.2,0.6,0.6,0.6,1v28.2c0,0.4-0.3,0.8-0.6,1C296.6,73.9,296.1,74,295.6,74z"/>
	<path d="M311.3,74.3c-1.4,0-2.8-0.4-4-1.1c-1.2-0.8-2.2-1.8-3-3c-0.7-1.2-1.1-2.6-1.1-4.1v-3.8c0-1.4,0.4-2.8,1.1-4.1
		c0.7-1.2,1.7-2.2,3-3c1.2-0.7,2.6-1.1,4.1-1.1c1.4,0,2.8,0.4,4.1,1.1c1.2,0.7,2.2,1.7,3,2.9c0.7,1.2,1.1,2.6,1.1,4.1V66
		c0,1.4-0.4,2.8-1.1,4.1c-0.7,1.2-1.8,2.3-3,3.1C314.2,73.9,312.8,74.3,311.3,74.3z M311.3,70.5c0.7,0,1.4-0.2,2-0.6
		c0.6-0.4,1.1-1,1.5-1.6c0.4-0.6,0.6-1.4,0.6-2.1v-3.8c0-0.7-0.2-1.4-0.6-2.1c-0.4-0.6-0.9-1.2-1.5-1.6c-0.6-0.4-1.3-0.6-2-0.6
		c-0.7,0-1.4,0.2-2,0.6c-0.6,0.4-1.1,1-1.4,1.6c-0.3,0.6-0.5,1.3-0.5,2.1v3.8c0,0.7,0.2,1.5,0.5,2.1c0.3,0.6,0.8,1.2,1.4,1.6
		C309.9,70.3,310.7,70.5,311.3,70.5L311.3,70.5z"/>
	<path d="M331.9,83.2c-1.4,0-2.8-0.2-4.2-0.7c-1.2-0.4-2.2-1-3.1-1.9c-0.8-0.8-1.2-1.9-1.1-3.1c0-1,0.3-1.9,0.9-2.7
		c0.6-0.7,1.3-1.3,2.1-1.7c-0.5-0.2-1-0.6-1.4-1c-0.4-0.5-0.5-1.1-0.5-1.7c0-0.7,0.2-1.3,0.6-1.9c0.4-0.5,0.9-0.9,1.4-1.3
		c-0.7-0.6-1.3-1.4-1.7-2.2c-0.4-0.9-0.6-1.9-0.6-2.9V61c0-1.2,0.3-2.4,0.9-3.5c0.6-1,1.5-1.9,2.6-2.4c2-0.9,4.2-1.1,6.3-0.5
		c0.7,0.2,1.4,0.6,2.1,1c0.3-0.8,0.7-1.5,1.3-2.1c0.3-0.4,0.8-0.6,1.2-0.6c0.5,0,0.9,0.2,1.3,0.5c0.3,0.3,0.4,0.6,0.4,1
		c0,0.2-0.1,0.4-0.2,0.6c-0.1,0.2-0.3,0.3-0.5,0.4c-0.3,0.1-0.6,0.3-0.9,0.6c-0.4,0.3-0.8,0.7-1,1.1c0.5,0.5,0.8,1.1,1,1.8
		c0.2,0.7,0.3,1.4,0.3,2.1v1.1c0,1.2-0.3,2.4-0.9,3.5c-0.6,1-1.5,1.9-2.6,2.4c-1.2,0.6-2.5,0.9-3.8,0.9c-0.9,0-1.8-0.1-2.7-0.5
		c-0.2,0.1-0.4,0.3-0.5,0.5c-0.4,0.5-0.3,1.2,0.2,1.6c0.1,0.1,0.3,0.2,0.4,0.2c0.7,0.2,1.5,0.4,2.2,0.5c0.9,0.1,1.9,0.3,2.9,0.4
		c1,0.2,2,0.4,2.9,0.8c0.9,0.3,1.7,0.9,2.3,1.6c0.6,0.9,0.9,1.9,0.9,3c0,1.3-0.4,2.5-1.1,3.5c-0.8,0.9-1.8,1.6-3,2
		C334.7,83,333.3,83.2,331.9,83.2z M331.8,80.4c1.1,0,2.2-0.3,3.1-0.9c0.8-0.5,1.2-1.4,1.2-2.3c0-0.6-0.2-1.2-0.6-1.6
		c-0.4-0.4-1-0.7-1.5-0.9c-0.6-0.2-1.3-0.3-2-0.4l-2-0.3c-0.7,0.3-1.3,0.7-1.9,1.2c-0.5,0.5-0.8,1.2-0.8,1.9c0,1,0.4,1.9,1.2,2.4
		C329.6,80.1,330.7,80.4,331.8,80.4L331.8,80.4z M331.7,66.2c1,0,1.9-0.4,2.5-1.1c0.6-0.8,0.9-1.9,0.9-2.9V61c0-1-0.3-2-0.9-2.8
		c-0.6-0.8-1.5-1.2-2.5-1.1c-1-0.1-1.9,0.4-2.5,1.1c-0.6,0.8-0.9,1.8-0.9,2.8v1.1c0,1,0.3,2.1,0.9,2.9
		C329.8,65.8,330.7,66.3,331.7,66.2L331.7,66.2z"/>
	<path d="M345.2,50.3c-0.4,0-0.8-0.2-1-0.6c-0.3-0.3-0.4-0.7-0.4-1.1c0-0.4,0.2-0.9,0.6-1.1l4.9-2.6c0.1-0.1,0.3-0.1,0.4-0.1
		c0.4,0,0.8,0.2,1,0.6c0.2,0.3,0.4,0.7,0.4,1.1c0,0.5-0.2,0.9-0.6,1.1l-4.8,2.5l-0.2,0.1C345.4,50.3,345.3,50.3,345.2,50.3z
		 M346.9,74c-0.5,0-1-0.1-1.5-0.4c-0.3-0.2-0.5-0.6-0.6-1V55.9c0-0.4,0.2-0.8,0.6-1c0.4-0.3,1-0.4,1.5-0.4c0.5,0,1,0.1,1.5,0.4
		c0.4,0.2,0.6,0.6,0.6,1v16.7c0,0.4-0.3,0.8-0.6,1C347.9,73.9,347.4,74,346.9,74z"/>
	<path d="M359,74.3c-1.4,0-2.7-0.5-3.7-1.4c-1.9-2.2-2.1-5.4-0.4-7.7c0.9-0.9,2-1.5,3.2-1.8c1.6-0.4,3.2-0.5,4.8-0.5h1.7v-0.7
		c0-0.7-0.1-1.4-0.4-2.1c-0.2-0.7-0.7-1.3-1.2-1.7c-0.7-0.5-1.5-0.7-2.3-0.7c-0.8,0-1.5,0.1-2.2,0.3c-0.4,0.1-0.9,0.4-1.3,0.6
		c-0.2,0.2-0.6,0.3-0.9,0.3c-0.5,0-0.9-0.3-1.1-0.7c-0.3-0.5-0.4-1-0.4-1.5c0-0.6,0.4-1.1,0.9-1.4c0.7-0.4,1.5-0.8,2.3-1
		c0.9-0.2,1.8-0.3,2.7-0.3c1.6-0.1,3.2,0.3,4.6,1.1c1.1,0.7,2,1.7,2.5,2.9c0.5,1.2,0.8,2.6,0.8,3.9v10.3c0,0.4-0.2,0.8-0.6,1
		c-0.4,0.3-0.9,0.5-1.4,0.4c-0.5,0-1-0.1-1.4-0.4c-0.3-0.2-0.5-0.6-0.5-1v-1.4c-0.7,0.9-1.6,1.6-2.5,2.2
		C361.4,74,360.3,74.3,359,74.3z M360.5,71c0.7,0,1.4-0.2,1.9-0.6c0.6-0.4,1.2-0.9,1.6-1.6c0.4-0.6,0.6-1.2,0.6-1.9v-1.5h-1
		c-0.9,0-1.9,0.1-2.8,0.2c-0.8,0.1-1.5,0.4-2.1,0.8c-0.6,0.5-0.9,1.2-0.8,1.9c-0.1,0.8,0.2,1.5,0.7,2C359.2,70.8,359.9,71,360.5,71
		L360.5,71z"/>
	<path d="M380.4,74.3c-1.2,0-2.3-0.2-3.5-0.5c-0.9-0.3-1.7-0.7-2.4-1.3c-0.5-0.4-0.8-0.9-0.9-1.5c0-0.3,0.1-0.6,0.2-0.8
		c0.1-0.3,0.3-0.6,0.5-0.8c0.2-0.2,0.5-0.3,0.7-0.3c0.4,0,0.8,0.2,1.1,0.5c0.5,0.4,1,0.7,1.5,0.9c0.8,0.4,1.7,0.5,2.6,0.5
		c1,0.1,1.9-0.1,2.7-0.7c0.9-0.8,0.9-2.2,0.1-3.1c0,0-0.1-0.1-0.1-0.1c-0.5-0.4-1.1-0.8-1.8-1c-0.7-0.3-1.5-0.5-2.3-0.7
		c-0.8-0.2-1.6-0.5-2.3-0.9c-0.7-0.4-1.3-0.9-1.8-1.6c-0.5-0.8-0.7-1.8-0.7-2.7c0-1,0.2-1.9,0.7-2.8c0.5-1,1.2-1.7,2.1-2.3
		c1.2-0.6,2.6-0.9,3.9-0.9c1,0,1.9,0.1,2.8,0.3c0.8,0.2,1.5,0.5,2.2,0.9c0.5,0.2,0.8,0.7,0.9,1.2c0,0.3-0.1,0.6-0.2,0.8
		c-0.1,0.3-0.3,0.6-0.5,0.9c-0.2,0.3-0.5,0.4-0.9,0.4c-0.3,0-0.7-0.1-1-0.3c-0.4-0.2-0.9-0.4-1.4-0.6c-0.6-0.2-1.3-0.3-1.9-0.3
		c-0.6,0-1.3,0.1-1.8,0.4c-0.4,0.2-0.8,0.5-1,0.9c-0.2,0.3-0.3,0.7-0.3,1.1c0,0.5,0.2,1,0.7,1.4c0.5,0.4,1.1,0.7,1.8,0.8l2.3,0.7
		c0.8,0.2,1.6,0.6,2.3,1c0.7,0.4,1.3,1,1.8,1.8c0.5,0.9,0.7,1.9,0.7,3c0.1,1.6-0.6,3.1-1.8,4.2C384.1,73.9,382.3,74.5,380.4,74.3z"
		/>
	<path d="M408.2,74.3c-1.2,0-2.4-0.4-3.4-1.1c-1.1-0.8-1.9-1.8-2.5-3c-0.6-1.3-1-2.6-1-4.1v-3.8c0-1.4,0.3-2.8,1-4.1
		c0.6-1.2,1.5-2.2,2.5-2.9c1-0.7,2.2-1.1,3.5-1.1c1.1,0,2.3,0.3,3.2,1c0.8,0.6,1.5,1.3,1.9,2.2V44.3c0-0.4,0.3-0.8,0.6-1
		c0.4-0.3,1-0.4,1.5-0.4c0.5,0,1,0.1,1.4,0.4c0.4,0.2,0.6,0.6,0.6,1v28.2c0,0.4-0.2,0.8-0.6,1c-0.4,0.3-0.9,0.5-1.4,0.4
		c-0.5,0-1-0.1-1.4-0.4c-0.3-0.2-0.5-0.6-0.6-1v-1.4c-0.5,0.9-1.2,1.7-2.1,2.2C410.5,74,409.4,74.3,408.2,74.3z M409.4,70.5
		c0.7,0,1.5-0.2,2.1-0.7c0.6-0.4,1-0.9,1.4-1.5c0.3-0.4,0.5-0.9,0.5-1.4v-4.7c0-0.8-0.2-1.6-0.6-2.3c-0.4-0.6-0.9-1.1-1.5-1.5
		c-0.6-0.3-1.2-0.5-1.9-0.5c-0.7,0-1.4,0.2-2,0.6c-0.6,0.4-1.1,1-1.4,1.6c-0.4,0.6-0.5,1.3-0.5,2.1v3.8c0,0.7,0.2,1.5,0.5,2.1
		c0.3,0.7,0.8,1.2,1.4,1.6C408,70.2,408.7,70.5,409.4,70.5z"/>
	<path d="M432,74.3c-1.6,0-3.3-0.3-4.7-1c-1.3-0.6-2.4-1.6-3.2-2.9c-0.8-1.3-1.2-2.8-1.2-4.3v-3.9c0-1.4,0.4-2.8,1.1-4.1
		c0.7-1.2,1.8-2.2,3-2.9c1.2-0.7,2.6-1.1,4.1-1.1c1.4,0,2.7,0.3,3.9,1c1.2,0.6,2.2,1.6,2.8,2.7c0.7,1.2,1.1,2.6,1.1,3.9
		c0.1,0.9-0.1,1.7-0.5,2.5c-0.3,0.5-0.8,0.8-1.4,0.9c-0.6,0.1-1.1,0.2-1.7,0.2H427v0.9c-0.1,1.3,0.5,2.5,1.4,3.3
		c1,0.8,2.3,1.3,3.7,1.2c0.8,0,1.5-0.1,2.2-0.4c0.5-0.2,1-0.5,1.5-0.8c0.3-0.2,0.7-0.4,1.1-0.4c0.3,0,0.6,0.1,0.9,0.3
		c0.2,0.2,0.4,0.5,0.6,0.8c0.1,0.3,0.2,0.5,0.2,0.8c-0.1,0.5-0.4,1-0.8,1.4c-0.7,0.6-1.4,1-2.3,1.3C434.3,74.1,433.2,74.3,432,74.3z
		 M427,62.7h6.5c0.4,0,0.8,0,1.2-0.2c0.2-0.3,0.3-0.6,0.3-1c0-0.7-0.2-1.4-0.5-2c-0.3-0.6-0.8-1.1-1.4-1.4c-1.3-0.7-2.8-0.7-4.1,0
		c-0.6,0.3-1.1,0.8-1.4,1.4c-0.4,0.6-0.6,1.3-0.6,2L427,62.7z"/>
	<path d="M456,74c-0.5,0-1-0.1-1.5-0.4c-0.3-0.2-0.5-0.6-0.6-1V44.3c0-0.4,0.2-0.8,0.6-1c0.4-0.3,1-0.4,1.5-0.4c0.5,0,1,0.1,1.5,0.4
		c0.4,0.2,0.6,0.6,0.6,1v28.2c0,0.4-0.3,0.8-0.6,1C457.1,73.9,456.5,74,456,74z"/>
	<path d="M468.5,74.3c-1.4,0-2.7-0.5-3.7-1.4c-1.9-2.2-2.1-5.4-0.4-7.7c0.9-0.9,2-1.5,3.2-1.8c1.6-0.4,3.2-0.5,4.8-0.5h1.7v-0.7
		c0-0.7-0.1-1.4-0.4-2.1c-0.2-0.7-0.7-1.2-1.2-1.7c-0.7-0.5-1.5-0.7-2.3-0.7c-0.8,0-1.5,0.1-2.2,0.3c-0.4,0.2-0.9,0.4-1.3,0.6
		c-0.2,0.2-0.5,0.3-0.9,0.3c-0.5,0-0.9-0.3-1.1-0.7c-0.3-0.4-0.4-1-0.4-1.5c0-0.6,0.4-1.1,0.9-1.4c0.7-0.4,1.5-0.8,2.3-1
		c0.9-0.2,1.8-0.3,2.7-0.3c1.6-0.1,3.2,0.3,4.6,1.1c1.1,0.7,2,1.7,2.5,2.9c0.5,1.2,0.8,2.6,0.8,3.9v10.3c0,0.4-0.2,0.8-0.6,1
		c-0.4,0.3-0.9,0.5-1.4,0.4c-0.5,0-1-0.1-1.4-0.4c-0.3-0.2-0.5-0.6-0.6-1v-1.4c-0.7,0.9-1.5,1.6-2.4,2.3
		C470.9,74,469.7,74.3,468.5,74.3z M470,71c0.7,0,1.4-0.2,1.9-0.6c0.6-0.4,1.2-0.9,1.6-1.6c0.4-0.6,0.6-1.2,0.6-1.9v-1.5h-1
		c-0.9,0-1.9,0.1-2.8,0.2c-0.8,0.1-1.5,0.4-2.1,0.8c-0.6,0.5-0.9,1.2-0.8,1.9c-0.1,0.8,0.2,1.5,0.7,2C468.7,70.8,469.3,71,470,71z"
		/>
	<path d="M146.4,111.2c-0.4,0-0.7-0.1-1-0.3c-0.3-0.2-0.5-0.5-0.5-0.9V84c0-0.4,0.2-0.7,0.5-0.9c0.3-0.2,0.7-0.3,1-0.3
		c0.4,0,0.7,0.1,1.1,0.3c0.3,0.2,0.5,0.5,0.5,0.9v26c0,0.4-0.2,0.7-0.5,0.9C147.1,111.1,146.8,111.2,146.4,111.2z"/>
	<path d="M155.7,111.2c-0.4,0-0.8-0.1-1.1-0.4c-0.3-0.2-0.4-0.5-0.4-0.8V94c0-0.3,0.1-0.6,0.4-0.8c0.3-0.2,0.7-0.3,1.1-0.3
		c0.4,0,0.7,0.1,1,0.3c0.3,0.2,0.4,0.5,0.4,0.8v1.6c0.5-0.8,1.1-1.5,1.8-2c0.9-0.6,2-0.9,3.1-0.9c1.2,0,2.3,0.3,3.3,1
		c1,0.7,1.8,1.6,2.4,2.7c0.6,1.1,0.9,2.4,0.9,3.7v10c0,0.4-0.2,0.7-0.5,0.9c-0.6,0.4-1.5,0.4-2.1,0c-0.3-0.2-0.5-0.5-0.5-0.9v-10
		c0-0.8-0.2-1.5-0.6-2.2c-0.4-0.7-0.9-1.3-1.5-1.7c-0.6-0.4-1.4-0.6-2.1-0.6c-0.7,0-1.3,0.2-1.9,0.6c-0.6,0.4-1.1,0.9-1.5,1.6
		c-0.4,0.7-0.6,1.6-0.6,2.4v10c0,0.3-0.2,0.6-0.5,0.8C156.5,111.1,156.1,111.2,155.7,111.2z"/>
	<path d="M175.8,111.2c-0.4,0-0.7-0.1-1.1-0.3c-0.3-0.2-0.4-0.5-0.4-0.8V89c0-1.3,0.3-2.5,0.9-3.7c0.6-1.1,1.4-2,2.4-2.6
		c1-0.6,2.1-1,3.3-1h1.4c0.4,0,0.7,0.1,0.9,0.4c0.2,0.3,0.3,0.6,0.3,1c0,0.4-0.1,0.7-0.3,1c-0.2,0.3-0.6,0.4-0.9,0.4h-0.8
		c-0.7,0-1.4,0.2-2.1,0.6c-0.6,0.4-1.1,0.9-1.4,1.5c-0.3,0.6-0.5,1.4-0.5,2.1v4.1h5.1c0.3,0,0.6,0.1,0.7,0.4
		c0.2,0.3,0.3,0.6,0.3,0.9c0,0.3-0.1,0.6-0.3,0.9c-0.2,0.2-0.4,0.4-0.7,0.4h-5.1V110c0,0.3-0.2,0.7-0.5,0.8
		C176.6,111,176.2,111.2,175.8,111.2z"/>
	<path d="M193.5,111.5c-1.3,0-2.6-0.3-3.7-1c-1.1-0.7-2-1.6-2.7-2.8c-0.7-1.1-1-2.4-1-3.7v-3.9c0-1.3,0.3-2.5,1-3.6
		c0.7-1.1,1.6-2,2.7-2.7c2.2-1.4,5-1.4,7.3,0c1.1,0.7,2,1.6,2.7,2.7c0.7,1.1,1,2.4,1,3.7v3.9c0,1.3-0.3,2.6-1,3.7
		c-0.7,1.1-1.6,2.1-2.7,2.8C196,111.2,194.7,111.5,193.5,111.5z M193.5,108.6c0.8,0,1.5-0.2,2.1-0.7c0.6-0.4,1.2-1,1.5-1.7
		c0.4-0.7,0.6-1.4,0.6-2.2V100c0-0.8-0.2-1.5-0.6-2.2c-0.4-0.7-0.9-1.3-1.5-1.7c-1.3-0.9-3-0.9-4.3,0c-0.6,0.4-1.2,1-1.5,1.7
		c-0.4,0.7-0.6,1.4-0.6,2.2v3.9c0,0.8,0.2,1.5,0.6,2.2c0.3,0.7,0.9,1.3,1.5,1.7C192,108.4,192.7,108.6,193.5,108.6z"/>
	<path d="M207.5,111.2c-0.4,0-0.8-0.1-1.1-0.4c-0.3-0.2-0.4-0.5-0.4-0.8V94c0-0.3,0.1-0.6,0.4-0.8c0.3-0.2,0.7-0.3,1.1-0.3
		c0.4,0,0.7,0.1,1,0.3c0.3,0.2,0.4,0.5,0.4,0.8v1.8c0.6-1.2,1.5-2.1,2.7-2.7c0.6-0.3,1.4-0.5,2.1-0.5h1.3c0.3,0,0.6,0.2,0.8,0.4
		c0.2,0.3,0.4,0.7,0.4,1.1c0,0.4-0.1,0.7-0.4,1c-0.2,0.3-0.5,0.4-0.8,0.4h-1.3c-0.8,0-1.6,0.2-2.3,0.7c-0.7,0.5-1.3,1.2-1.8,2
		c-0.5,0.9-0.7,2-0.7,3v8.8c0,0.3-0.2,0.6-0.5,0.8C208.3,111,207.9,111.2,207.5,111.2z"/>
	<path d="M221.7,111.2c-0.4,0-0.8-0.1-1.1-0.4c-0.3-0.2-0.4-0.5-0.4-0.8V94c0-0.3,0.2-0.6,0.4-0.8c0.3-0.2,0.7-0.3,1.1-0.3
		c0.4,0,0.7,0.1,1,0.3c0.3,0.2,0.4,0.5,0.4,0.8v1.6c0.5-0.8,1.1-1.5,1.8-2c0.9-0.6,2-0.9,3.1-0.9c1.1,0,2.2,0.4,3.1,1.1
		c0.9,0.7,1.6,1.7,2,2.8c0.5-1.2,1.4-2.2,2.5-2.9c0.9-0.6,2-0.9,3.1-0.9c1.1,0,2.2,0.3,3.1,0.9c1,0.6,1.8,1.5,2.4,2.5
		c0.6,1.3,0.9,2.6,0.9,4.1v10c0,0.3-0.2,0.6-0.5,0.8c-0.6,0.5-1.5,0.5-2.2,0c-0.3-0.2-0.4-0.5-0.4-0.8v-10c0-0.9-0.2-1.7-0.6-2.5
		c-0.3-0.6-0.9-1.2-1.5-1.5c-0.6-0.3-1.2-0.5-1.8-0.5c-0.7,0-1.3,0.2-1.9,0.5c-1.3,0.8-2.1,2.3-2.1,3.9v10.1c0,0.4-0.2,0.7-0.5,0.9
		c-0.7,0.4-1.4,0.4-2.1,0c-0.3-0.2-0.5-0.5-0.5-0.9v-10.1c0-0.8-0.2-1.6-0.5-2.3c-0.3-0.6-0.8-1.2-1.4-1.6c-0.6-0.4-1.2-0.6-1.9-0.6
		c-0.7,0-1.3,0.2-1.9,0.5c-0.6,0.4-1.1,0.9-1.5,1.5c-0.4,0.7-0.6,1.6-0.6,2.4v10c0,0.3-0.2,0.6-0.5,0.8
		C222.5,111.1,222.1,111.2,221.7,111.2z"/>
	<path d="M254.6,111.5c-1.3,0-2.5-0.4-3.5-1.3c-1-1-1.6-2.4-1.5-3.9c-0.1-1.2,0.3-2.4,1.1-3.3c0.8-0.8,1.9-1.4,3.1-1.6
		c1.5-0.3,3-0.5,4.5-0.4h1.7v-0.8c0-0.8-0.1-1.5-0.4-2.3c-0.2-0.7-0.7-1.3-1.3-1.8c-0.7-0.5-1.5-0.8-2.4-0.7c-0.7,0-1.4,0.1-2,0.3
		c-0.4,0.1-0.8,0.3-1.2,0.6c-0.2,0.2-0.5,0.3-0.8,0.3c-0.4,0-0.7-0.2-0.9-0.6c-0.2-0.3-0.3-0.7-0.3-1.1c0-0.4,0.3-0.8,0.8-1.1
		c0.6-0.4,1.3-0.6,2-0.8c0.8-0.2,1.6-0.3,2.4-0.3c1.5-0.1,2.9,0.3,4.1,1.1c1,0.7,1.8,1.7,2.2,2.8c0.5,1.2,0.7,2.4,0.7,3.6v9.9
		c0,0.3-0.2,0.6-0.4,0.8c-0.3,0.2-0.7,0.4-1.1,0.4c-0.4,0-0.7-0.1-1-0.4c-0.3-0.2-0.4-0.5-0.4-0.8v-1.5c-0.7,0.8-1.5,1.5-2.3,2.1
		C256.9,111.2,255.8,111.5,254.6,111.5z M255.6,108.9c0.7,0,1.5-0.2,2.1-0.6c0.7-0.4,1.2-0.9,1.7-1.5c0.4-0.5,0.6-1.1,0.7-1.8v-2
		h-1.3c-1,0-2,0.1-2.9,0.2c-0.8,0.1-1.6,0.4-2.2,0.8c-0.6,0.5-0.9,1.3-0.9,2c-0.1,0.8,0.2,1.6,0.8,2.2
		C254.1,108.7,254.8,108.9,255.6,108.9L255.6,108.9z"/>
	<path d="M275.6,111.5c-1.5,0.1-2.9-0.3-4.2-1c-1.1-0.6-1.9-1.6-2.4-2.7c-0.5-1.2-0.8-2.5-0.8-3.8v-3.9c0-1.3,0.3-2.6,0.8-3.8
		c0.5-1.1,1.4-2.1,2.4-2.7c1.3-0.7,2.7-1.1,4.2-1c1,0,1.9,0.1,2.8,0.4c0.7,0.2,1.3,0.6,1.9,1.1c0.4,0.3,0.6,0.7,0.7,1.2
		c0,0.2-0.1,0.5-0.2,0.7c-0.1,0.2-0.3,0.5-0.4,0.6c-0.2,0.2-0.4,0.3-0.6,0.3c-0.3,0-0.6-0.2-0.8-0.4c-0.4-0.3-0.7-0.5-1.1-0.7
		c-0.6-0.2-1.3-0.4-2-0.3c-1.3-0.1-2.5,0.4-3.4,1.2c-0.8,0.9-1.2,2.1-1.1,3.4v3.9c-0.1,1.2,0.3,2.4,1.1,3.4c0.9,0.9,2.2,1.3,3.4,1.2
		c0.7,0,1.4-0.1,2.1-0.4c0.4-0.2,0.8-0.4,1.2-0.7c0.2-0.2,0.5-0.3,0.8-0.3c0.3,0,0.5,0.1,0.7,0.3c0.2,0.2,0.4,0.4,0.5,0.6
		c0.1,0.2,0.2,0.5,0.2,0.7c-0.1,0.5-0.3,0.9-0.7,1.2c-0.6,0.5-1.2,0.8-2,1.1C277.6,111.3,276.6,111.5,275.6,111.5z"/>
	<path d="M287.3,87.8c-0.5,0-1-0.2-1.4-0.6c-0.4-0.4-0.6-0.8-0.6-1.4c0-0.5,0.2-0.9,0.6-1.3c0.8-0.7,1.9-0.7,2.7,0
		c0.4,0.3,0.6,0.8,0.6,1.3c0,0.5-0.2,1-0.6,1.4C288.3,87.6,287.8,87.8,287.3,87.8z M287.3,111.2c-0.4,0-0.8-0.1-1.1-0.4
		c-0.3-0.2-0.4-0.5-0.4-0.8V94c0-0.3,0.1-0.6,0.4-0.8c0.3-0.2,0.7-0.3,1.1-0.3c0.4,0,0.8,0.1,1.1,0.3c0.3,0.2,0.5,0.5,0.5,0.8v16
		c0,0.3-0.2,0.6-0.5,0.8C288.1,111,287.7,111.2,287.3,111.2L287.3,111.2z"/>
	<path d="M301.4,111.5c-1.3,0-2.5-0.4-3.6-1.1c-1.1-0.7-2-1.6-2.7-2.8c-0.7-1.1-1-2.4-1-3.7V100c0-1.3,0.3-2.5,1-3.6
		c0.7-1.1,1.6-2,2.7-2.7c2.2-1.4,5-1.4,7.3,0c1.1,0.7,2,1.6,2.7,2.7c0.7,1.1,1,2.4,1,3.7v3.9c0,1.3-0.3,2.6-1,3.7
		c-0.7,1.1-1.6,2.1-2.7,2.8C303.9,111.1,302.6,111.5,301.4,111.5z M301.4,108.6c0.8,0,1.5-0.2,2.1-0.7c0.6-0.4,1.2-1,1.5-1.7
		c0.4-0.7,0.6-1.4,0.6-2.2V100c0-0.8-0.2-1.5-0.6-2.2c-0.4-0.7-0.9-1.3-1.5-1.7c-1.3-0.9-3-0.9-4.3,0c-0.6,0.4-1.2,1-1.5,1.7
		c-0.4,0.7-0.5,1.4-0.6,2.2v3.9c0,0.8,0.2,1.5,0.6,2.2c0.3,0.7,0.9,1.3,1.5,1.7C299.8,108.4,300.6,108.6,301.4,108.6z M299.4,88.6
		c-0.3,0-0.6-0.2-0.8-0.4c-0.2-0.2-0.3-0.6-0.3-0.9c0-0.4,0.1-0.7,0.5-0.9l4.3-2.4c0.1,0,0.2-0.1,0.4-0.1c0.3,0,0.6,0.1,0.8,0.4
		c0.2,0.3,0.3,0.6,0.3,0.9c0,0.4-0.2,0.7-0.5,0.9l-4.2,2.2c-0.1,0-0.1,0.1-0.2,0.1C299.5,88.6,299.5,88.6,299.4,88.6L299.4,88.6z"/>
	<path d="M315.4,111.2c-0.4,0-0.8-0.1-1.1-0.4c-0.3-0.2-0.4-0.5-0.4-0.8V94c0-0.3,0.1-0.6,0.4-0.8c0.3-0.2,0.7-0.3,1.1-0.2
		c0.4,0,0.7,0.1,1,0.3c0.3,0.2,0.4,0.5,0.4,0.8v1.6c0.5-0.8,1.1-1.5,1.8-2c0.9-0.6,2-0.9,3.1-0.9c1.2,0,2.3,0.4,3.2,1
		c1,0.7,1.8,1.6,2.4,2.7c0.6,1.1,0.9,2.4,0.9,3.7v10c0,0.4-0.2,0.7-0.5,0.9c-0.3,0.2-0.7,0.3-1.1,0.3c-0.4,0-0.7-0.1-1-0.3
		c-0.3-0.2-0.5-0.5-0.5-0.9v-10c0-0.8-0.2-1.5-0.6-2.2c-0.4-0.7-0.9-1.3-1.5-1.7c-0.6-0.4-1.4-0.7-2.1-0.6c-0.7,0-1.3,0.2-1.9,0.6
		c-0.6,0.4-1.1,0.9-1.5,1.6c-0.4,0.7-0.6,1.6-0.6,2.4v10c0,0.3-0.2,0.6-0.5,0.8C316.1,111.1,315.8,111.2,315.4,111.2z"/>
	<path d="M342.6,120c-0.4,0-0.7-0.1-1-0.3c-0.3-0.3-0.5-0.7-0.4-1.1c0-0.3,0.1-0.7,0.2-1c0.1-0.3,0.4-0.4,0.7-0.4
		c0.6,0,1.1-0.2,1.6-0.5c0.6-0.4,1.1-0.9,1.6-1.4c0.5-0.7,1-1.4,1.4-2.2c0.4-0.9,0.7-1.9,0.8-2.8l-6.1-15.6
		c-0.1-0.1-0.1-0.3-0.1-0.4c0-0.3,0.1-0.6,0.3-0.8c0.2-0.2,0.5-0.4,0.8-0.6c0.3-0.1,0.6-0.2,0.9-0.2c0.2,0,0.4,0.1,0.6,0.1
		c0.2,0.1,0.3,0.3,0.4,0.5l4.9,13.5l4.4-13.5c0.1-0.2,0.2-0.4,0.4-0.5c0.2-0.1,0.4-0.1,0.6-0.1c0.3,0,0.6,0.1,0.8,0.2
		c0.3,0.1,0.6,0.3,0.8,0.6c0.2,0.2,0.3,0.5,0.3,0.8c0,0.1,0,0.3-0.1,0.4l-5.7,15.7c-0.4,1.1-0.8,2.1-1.2,3.3
		c-0.4,1.1-0.9,2.2-1.5,3.2c-0.5,0.9-1.3,1.7-2.2,2.3C344.9,119.7,343.7,120.1,342.6,120z"/>
	<text transform="matrix(1 0 0 1 364.2419 110.6501)" class="st5 st6 st7">Diseño</text>
</g>
</svg>
