<svg xmlns="http://www.w3.org/2000/svg" viewBox="0 0 487.15 269.9"><g id="Capa_3" data-name="Capa 3"><polygon points="362.29 61.83 367.98 61.83 349.16 95.89 344.27 95.89 362.29 61.83" style="fill:#adb0a7"/><polygon points="254.68 183.12 261.05 183.25 307.99 95.89 301.71 95.89 254.68 183.12" style="fill:#adb0a7"/><path d="M239.31,95.89h6.39s-43.58,82.49-47.15,85.23c-2.44,1.86-5.3,2-17.16,2.13C180.2,183.26,239.31,95.89,239.31,95.89Z" style="fill:#adb0a7"/><path d="M199.13,61.83h5.72S160.16,145.55,160,147.07s-.24,3.93,5.51,6-16.05-2.74-16.05-2.74Z" style="fill:#adb0a7"/><text transform="translate(92.97 221)" style="font-size:24.632429122924805px;fill:#717173;font-family:LibertyD">UNIVERSI<tspan x="94.9" y="0" style="letter-spacing:-0.048347565025230965em">D</tspan><tspan x="109.68" y="0">AD TECNO</tspan><tspan x="221.04" y="0" style="letter-spacing:-0.010268158541643969em">L</tspan><tspan x="232.05" y="0">ÓGI</tspan><tspan x="272.56" y="0" style="letter-spacing:0.00927702354727679em">C</tspan><tspan x="287.58" y="0">A</tspan></text><text transform="translate(6.58 252.4)" style="font-size:23.952850341796875px;fill:#717173;font-family:LibertyD">EMILIANO ZA<tspan x="137.26" y="0" style="letter-spacing:-0.07713721847858354em">P</tspan><tspan x="147.12" y="0" style="letter-spacing:-0.02980301623036182em">A</tspan><tspan x="161.66" y="0" style="letter-spacing:-0.028804146329344225em">T</tspan><tspan x="171.85" y="0" style="letter-spacing:0.00002038510002076732em">A DEL ES</tspan><tspan x="265.12" y="0" style="letter-spacing:-0.028783761229323458em">T</tspan><tspan x="275.31" y="0">ADO DE MORE</tspan><tspan x="429.97" y="0" style="letter-spacing:-0.01027409041046673em">L</tspan><tspan x="440.67" y="0" style="letter-spacing:0.00004077020004153464em">OS </tspan></text><path d="M158.12,61.83h41s-44.65,82.75-44.75,86c-.18,5.86,16.16,3.65,16.72,2.77C176,143,201.45,95.89,201.45,95.89h38.31l-41.91,78a17.8,17.8,0,0,1-15.68,9.37H115.82A13.72,13.72,0,0,1,103.74,163h0Z" style="fill:#009475"/><polygon points="258.06 61.83 239.76 95.89 257.77 95.89 210.83 183.25 255.09 183.25 302.04 95.89 344.27 95.89 362.57 61.83 258.06 61.83" style="fill:#009475"/><polygon points="324.51 103.74 395.96 103.74 385.31 123.01 344.84 122.91 339.21 133.39 366.79 133.39 356.87 151.85 329.29 151.85 323.18 163.22 364 163.22 353.24 183.25 281.79 183.25 324.51 103.74" style="fill:#002e60"/><polygon points="397.13 122.91 407.42 103.74 479.05 103.74 468.75 122.91 409.21 163.22 447.08 163.22 436.32 183.25 364.7 183.25 375.87 163.06 434.11 122.86 397.13 122.91" style="fill:#002e60"/><path d="M159.71,31.14l-1.07-.63a5.46,5.46,0,0,0-6.77,1,5.67,5.67,0,0,0-2.35-7l-1.07-.63a5.44,5.44,0,0,0-5.13-.21,5.61,5.61,0,0,0-2.64-3.72l-1.07-.63a5.47,5.47,0,0,0-7.55,2.07L110,60.34c-1.44-.25-2.92-.41-4.4-.53L93.49,15.63a5.52,5.52,0,0,0-6.81-3.91l-1.19.34a5.55,5.55,0,0,0-3.76,3.65,5.45,5.45,0,0,0-5.08-1.14l-1.19.34a5.62,5.62,0,0,0-4,5.41,5.48,5.48,0,0,0-6.48-3l-1.2.34a5.65,5.65,0,0,0-3.84,6.94L72.08,69.05c-1.19.84-2.35,1.73-3.46,2.67L31,49.58a5.48,5.48,0,0,0-7.56,2.06l-.62,1.09a5.72,5.72,0,0,0,.17,5.9,5.5,5.5,0,0,0-5.1,2.81l-.62,1.09a5.74,5.74,0,0,0,.22,6A5.5,5.5,0,0,0,12.3,71.3l-.62,1.1a5.69,5.69,0,0,0,2,7.69L51,102a54.66,54.66,0,0,0-.8,6L9.44,118.91a5.64,5.64,0,0,0-3.95,6.87L5.8,127a5.61,5.61,0,0,0,3.5,3.89A5.71,5.71,0,0,0,8.12,136l.31,1.22a5.55,5.55,0,0,0,5.28,4.21,5.68,5.68,0,0,0-2.59,6.3l.32,1.22a5.52,5.52,0,0,0,6.74,4l41-10.93q1.45,2.15,3.11,4.12L41,183.75a5.69,5.69,0,0,0,2,7.69l1.07.63a5.41,5.41,0,0,0,5.24.16,5.66,5.66,0,0,0,2.75,4.55l1.08.63a5.45,5.45,0,0,0,6-.32,5.66,5.66,0,0,0,2.73,5.46l1.07.63a5.49,5.49,0,0,0,7.56-2.06l21.21-37.45c.25.05.49.11.74.15l47.93-86.06c-.15-.18-.31-.35-.47-.52l21.76-38.4A5.69,5.69,0,0,0,159.71,31.14Zm-48.06,32a6.57,6.57,0,0,1,2,.31l1.23-1.83a3.71,3.71,0,0,1-.35-4.21L133,25.47a3.73,3.73,0,0,1,6.46,3.72L121,61.13a3.73,3.73,0,0,1-3.83,1.8l-1,1.92a6.67,6.67,0,1,1-4.46-1.72ZM87.29,16.73a3.87,3.87,0,0,1,4.64,2.75l9.85,36.21a3.7,3.7,0,0,1-.51,3.06c.63,2,2.28,7.35-.38,11.87a6.94,6.94,0,0,1,2,1.41,6.68,6.68,0,1,1-9.55-.18,6.58,6.58,0,0,1,4-1.86c2-3.07.76-7.88.17-9.68a3.89,3.89,0,0,1-3.06-2.8L84.65,21.3A3.68,3.68,0,0,1,87.29,16.73ZM76.7,20a3.87,3.87,0,0,1,4.64,2.75l9.85,36.21a3.7,3.7,0,0,1-1.36,4,47.9,47.9,0,0,1,1.52,6.93c.17,1.13-.69,2.44-1,5.51-.23,2.19,1.64,7.17,2.73,9.86a6.89,6.89,0,0,1,4.68,2.06,6.71,6.71,0,1,1-7.47-1.56c-3.41-6.93-2.07-13.37-1.77-15.84.16-1.3-.49-3.92-1.21-6.28a3.87,3.87,0,0,1-3.39-2.83L74.06,24.55A3.68,3.68,0,0,1,76.7,20ZM63.38,27.22A3.68,3.68,0,0,1,66,22.65a3.88,3.88,0,0,1,4.64,2.75l9.85,36.21a3.7,3.7,0,0,1-1.43,4l.65,2.13a6.88,6.88,0,0,1,5.13,2,6.68,6.68,0,1,1-9.55-.17A6.44,6.44,0,0,1,77,68.45l-.44-2.19a3.89,3.89,0,0,1-3.28-2.82ZM24.89,53.61A3.73,3.73,0,0,1,30,52.25L61.92,70.68A3.75,3.75,0,0,1,63.7,73.2c1.8.94,6.66,3.53,8,8.6A6.76,6.76,0,0,1,74,81.37a6.67,6.67,0,1,1-5.19,2.48c-.73-3.61-5-6.08-6.61-6.92a3.72,3.72,0,0,1-4,.21L26.26,58.71A3.73,3.73,0,0,1,24.89,53.61Zm-5,9.82A3.73,3.73,0,0,1,25,62.07L56.9,80.5a3.75,3.75,0,0,1,1.83,3.76,45.26,45.26,0,0,1,5.86,3.79c.9.67,1.22,2.2,3.14,4.59,1.37,1.7,6.11,3.87,8.73,5a6.67,6.67,0,1,1-2,4.79A6.45,6.45,0,0,1,74.9,100C67.73,97.51,64.18,92,62.67,90.09c-.8-1-3.07-2.41-5.2-3.55a3.7,3.7,0,0,1-4.29.42L21.24,68.52A3.73,3.73,0,0,1,19.88,63.43Zm27.82,33L15.77,78a3.73,3.73,0,0,1,3.73-6.46L51.43,90a3.71,3.71,0,0,1,1.81,3.83l1.92,1a6.67,6.67,0,1,1-1.72,4.46,6.9,6.9,0,0,1,.3-2l-1.82-1.23A3.74,3.74,0,0,1,47.7,96.44ZM8.08,125a3.68,3.68,0,0,1,2.63-4.5L46,111.36a3.68,3.68,0,0,1,3,.54c1.93-.59,7.15-2.13,11.61.53A6.69,6.69,0,0,1,62,110.49a6.62,6.62,0,1,1-.05,9.35,6.67,6.67,0,0,1-1.88-4c-3-2-7.72-.85-9.47-.29a3.67,3.67,0,0,1-2.69,3l-35.31,9.16A3.71,3.71,0,0,1,8.08,125Zm3.32,10.41a3.68,3.68,0,0,1,2.63-4.5l35.31-9.16a3.68,3.68,0,0,1,3.89,1.39,46.87,46.87,0,0,1,6.77-1.4c1.1-.15,2.39.71,5.41,1.06,2.14.26,7-1.5,9.61-2.54a6.52,6.52,0,0,1,2-4.55A6.64,6.64,0,1,1,75.55,123c-6.74,3.25-13.06,1.85-15.48,1.53-1.28-.18-3.83.43-6.13,1.1a3.65,3.65,0,0,1-2.72,3.28l-35.31,9.16A3.71,3.71,0,0,1,11.4,135.43Zm48.61,2a6.78,6.78,0,0,1-1.18-1.62l-2.13.4A3.66,3.66,0,0,1,54,139.41l-35.3,9.16a3.7,3.7,0,0,1-1.88-7.15l35.3-9.16A3.73,3.73,0,0,1,56,133.72l2.07-.61a6.62,6.62,0,1,1,1.9,4.35Zm-10.15,49a3.7,3.7,0,0,1-6.41-3.68l18.29-31.56a3.68,3.68,0,0,1,2.49-1.76c.94-1.79,3.51-6.59,8.54-7.89a6.62,6.62,0,1,1,2,2.8c-3.58.73-6,4.9-6.86,6.54a3.69,3.69,0,0,1,.21,4Zm40.29-26.86a6.9,6.9,0,0,1-2-.3L87,161.13a3.68,3.68,0,0,1,.34,4.17L69,196.85a3.7,3.7,0,0,1-6.41-3.68l18.29-31.56a3.7,3.7,0,0,1,3.81-1.78l1-1.9a6.55,6.55,0,0,1-2.2-4.9,6.63,6.63,0,1,1,6.63,6.6Zm3.07-20.74a6.62,6.62,0,0,1-2.44-.47C88.36,145.5,82.92,149,81,150.51c-1,.79-2.38,3-3.52,5.13a3.67,3.67,0,0,1,.42,4.25L59.6,191.45a3.7,3.7,0,0,1-6.41-3.69L71.48,156.2a3.72,3.72,0,0,1,3.73-1.8A44,44,0,0,1,79,148.61c.67-.89,2.18-1.21,4.55-3.11,1.69-1.35,3.85-6,5-8.62a6.54,6.54,0,0,1-1.87-4.59,6.62,6.62,0,1,1,6.62,6.6Zm15.33-41.42A6.68,6.68,0,1,1,111,84.59c2.45-7.16,7.93-10.72,9.87-12.23,1-.8,2.4-3.06,3.55-5.2a3.7,3.7,0,0,1-.42-4.29l18.43-31.93a3.73,3.73,0,1,1,6.46,3.73L130.46,66.6a3.75,3.75,0,0,1-3.76,1.82,46.4,46.4,0,0,1-3.79,5.86c-.67.91-2.2,1.22-4.59,3.14-1.7,1.37-3.87,6.11-5,8.73a6.68,6.68,0,0,1-4.79,11.32Zm50.16-57.79L140.28,71.61a3.74,3.74,0,0,1-2.52,1.78c-.94,1.81-3.53,6.67-8.61,8a6.6,6.6,0,0,1,.44,2.36,6.69,6.69,0,1,1-2.48-5.19c3.61-.74,6.08-5,6.92-6.61a3.73,3.73,0,0,1-.21-4.05L152.25,36a3.73,3.73,0,1,1,6.46,3.73Z" style="fill:#002e60"/><path d="M126.49,83.65A3.69,3.69,0,1,1,122.8,80,3.69,3.69,0,0,1,126.49,83.65Z" style="fill:#002e60"/><circle cx="108.43" cy="90.72" r="3.69" transform="translate(-0.84 1.02) rotate(-0.53)" style="fill:#002e60"/><path d="M115.11,69.75a3.7,3.7,0,1,1-3.69-3.7A3.69,3.69,0,0,1,115.11,69.75Z" style="fill:#002e60"/><path d="M73.92,84.28A3.69,3.69,0,1,1,70.23,88,3.69,3.69,0,0,1,73.92,84.28Z" style="fill:#002e60"/><path d="M81,98.64a3.7,3.7,0,1,1-3.7,3.7A3.7,3.7,0,0,1,81,98.64Z" style="fill:#002e60"/><path d="M60,95.66a3.69,3.69,0,1,1-3.7,3.69A3.69,3.69,0,0,1,60,95.66Z" style="fill:#002e60"/><path d="M64,112.52a3.67,3.67,0,1,1,0,5.17A3.65,3.65,0,0,1,64,112.52Z" style="fill:#002e60"/><path d="M78.93,117.76a3.66,3.66,0,1,1,0,5.17A3.66,3.66,0,0,1,78.93,117.76Z" style="fill:#002e60"/><path d="M62.11,130.21a3.66,3.66,0,1,1,0,5.17A3.65,3.65,0,0,1,62.11,130.21Z" style="fill:#002e60"/><path d="M75.19,139.2a3.67,3.67,0,1,1,3.66,3.65A3.65,3.65,0,0,1,75.19,139.2Z" style="fill:#002e60"/><path d="M89.44,132.22a3.67,3.67,0,1,1,3.67,3.65A3.66,3.66,0,0,1,89.44,132.22Z" style="fill:#002e60"/><path d="M86.48,152.94a3.67,3.67,0,1,1,3.66,3.65A3.65,3.65,0,0,1,86.48,152.94Z" style="fill:#002e60"/><path d="M100.65,74.05a3.69,3.69,0,1,1-5.28-.1A3.73,3.73,0,0,1,100.65,74.05Z" style="fill:#002e60"/><path d="M95.51,89.29a3.69,3.69,0,1,1-5.28-.1A3.73,3.73,0,0,1,95.51,89.29Z" style="fill:#002e60"/><path d="M82.56,71.92a3.7,3.7,0,1,1-5.29-.1A3.74,3.74,0,0,1,82.56,71.92Z" style="fill:#002e60"/></g></svg>