<?xml version="1.0" encoding="UTF-8"?>
<svg id="Capa_1" data-name="Capa 1" xmlns="http://www.w3.org/2000/svg" viewBox="0 0 801 801">
  <defs>
    <style>
      .cls-1, .cls-2 {
        fill: #fff;
      }

      .cls-3, .cls-4 {
        fill: #2a2237;
      }

      .cls-3, .cls-4, .cls-5, .cls-2 {
        stroke-miterlimit: 10;
      }

      .cls-3, .cls-5 {
        stroke: #2a2237;
        stroke-width: 10px;
      }

      .cls-4, .cls-2 {
        stroke: #000;
      }

      .cls-6 {
        fill: #6b1e4c;
      }
    </style>
  </defs>
  <rect class="cls-4" x=".5" y=".5" width="800" height="800"/>
  <path class="cls-2" d="m669.5,661.42c0,39.9-120.04,72.25-268.5,72.25h0c-148.46,0-268.5-32.35-268.5-72.25v-343.17c0-39.9,120.04-72.25,268.5-72.25h0c148.46,0,268.5,32.35,268.5,72.25v343.17Z"/>
  <g>
    <rect class="cls-6" x="166" y="282" width="470" height="379"/>
    <polyline class="cls-6" points="166 282.4 401 120.33 636 282.4"/>
  </g>
  <g>
    <polygon class="cls-2" points="400.5 94.22 79.67 316.33 58.47 285.7 401.32 48.45 400.5 94.22"/>
    <polygon class="cls-2" points="720.65 318.14 400.5 94.22 400.34 48.65 742 287.61 720.65 318.14"/>
  </g>
  <path class="cls-1" d="m236.5,409.04c0-5.66,8.8-16.98,27.92-17.98,19.12-1,267.11-2.27,279.69-.03,12.58,2.24,18.9,16.72,20.88,22.01,2.52,6.72,2.52,247.97,2.52,247.97H238.75l-2.25-251.96Z"/>
  <line class="cls-3" x1="265" y1="423" x2="535" y2="423"/>
  <line class="cls-3" x1="266" y1="457" x2="536" y2="457"/>
  <line class="cls-3" x1="265" y1="490" x2="535" y2="490"/>
  <line class="cls-3" x1="266" y1="524" x2="536" y2="524"/>
  <line class="cls-3" x1="266" y1="559" x2="536" y2="559"/>
  <line class="cls-3" x1="267" y1="593" x2="537" y2="593"/>
  <line class="cls-5" x1="267" y1="624" x2="537" y2="624"/>
  <line class="cls-3" x1="268" y1="656" x2="538" y2="656"/>
  <polygon class="cls-1" points="402 368 481.92 325.13 479.33 221.34 402.5 259.94 323 221.34 323 325.13 402 368"/>
  <polygon class="cls-6" points="347 233.83 384 251 384 284 419 284 419 252.33 457 233.83 457 316.33 401 344 347 314 347 233.83"/>
  <polygon class="cls-2" points="323 221.34 401 178 479.33 221.34 402.5 259.94 323 221.34"/>
</svg>