<svg xmlns="http://www.w3.org/2000/svg" viewBox="0 0 870.13 467.74"><defs><style>.a5d4eb2b-2131-4a81-ab64-11c4502d9744{fill:#adb0a7;}.e783aae9-acf0-441e-9e97-50c260abd3e9{font-size:43.9px;}.a507c96b-c08a-4e12-9466-35b06f0669eb,.e783aae9-acf0-441e-9e97-50c260abd3e9{fill:#717173;font-family:LibertyD;}.aa5cdda7-cfba-4cce-abce-3d87667186ba{letter-spacing:-0.05em;}.b3f0b183-ea82-4ece-a906-31af02c238a9{letter-spacing:0em;}.ee4a89ac-911b-4c75-aec7-c78b074961f9{letter-spacing:-0.01em;}.ff98a592-5848-4910-9920-3484cfbde0df{letter-spacing:0.01em;}.a507c96b-c08a-4e12-9466-35b06f0669eb{font-size:42.69px;}.a83def5c-33bd-4bc9-b46b-9f7fb3563365{letter-spacing:-0.08em;}.efac3042-8fc3-4b2f-a494-03406c661173{letter-spacing:-0.03em;}.f8687eb4-c88c-4ef5-badd-ddbddbd2b105{letter-spacing:-0.03em;}.b5628a8a-85cb-4099-b59b-d18e7c195972{letter-spacing:-0.01em;}.b4f04f9a-c51e-4855-a036-695f881da607{fill:#009475;}.b3328da3-e804-4201-aa33-65f0f3a87539{fill:#002e60;}</style></defs><g id="b0f1764e-7254-4b61-b092-25dfe4b05c12" data-name="Capa 3"><polygon class="a5d4eb2b-2131-4a81-ab64-11c4502d9744" points="642.94 95.48 653.08 95.48 619.53 156.18 610.83 156.18 642.94 95.48"/><polygon class="a5d4eb2b-2131-4a81-ab64-11c4502d9744" points="451.15 311.65 462.51 311.89 546.17 156.18 534.98 156.18 451.15 311.65"/><path class="a5d4eb2b-2131-4a81-ab64-11c4502d9744" d="M423.78,156.18h11.38s-77.67,147-84,151.9c-4.34,3.33-9.44,3.64-30.57,3.81C318.42,311.9,423.78,156.18,423.78,156.18Z"/><path class="a5d4eb2b-2131-4a81-ab64-11c4502d9744" d="M352.15,95.48h10.21S282.7,244.7,282.45,247.4s-.45,7,9.81,10.62-28.61-4.87-28.61-4.87Z"/><text class="e783aae9-acf0-441e-9e97-50c260abd3e9" transform="translate(162.96 379.16)">UNIVERSI<tspan class="aa5cdda7-cfba-4cce-abce-3d87667186ba" x="169.13" y="0">D</tspan><tspan class="b3f0b183-ea82-4ece-a906-31af02c238a9" x="195.47" y="0">AD TECNO</tspan><tspan class="ee4a89ac-911b-4c75-aec7-c78b074961f9" x="393.94" y="0">L</tspan><tspan x="413.56" y="0">ÓGI</tspan><tspan class="ff98a592-5848-4910-9920-3484cfbde0df" x="485.75" y="0">C</tspan><tspan x="512.52" y="0">A</tspan></text><text class="a507c96b-c08a-4e12-9466-35b06f0669eb" transform="translate(9 435.11)">EMILIANO ZA<tspan class="a83def5c-33bd-4bc9-b46b-9f7fb3563365" x="244.63" y="0">P</tspan><tspan class="efac3042-8fc3-4b2f-a494-03406c661173" x="262.2" y="0">A</tspan><tspan class="f8687eb4-c88c-4ef5-badd-ddbddbd2b105" x="288.11" y="0">T</tspan><tspan x="306.26" y="0">A DEL ES</tspan><tspan class="f8687eb4-c88c-4ef5-badd-ddbddbd2b105" x="472.5" y="0">T</tspan><tspan x="490.65" y="0">ADO DE MORE</tspan><tspan class="b5628a8a-85cb-4099-b59b-d18e7c195972" x="766.29" y="0">L</tspan><tspan x="785.37" y="0">OS </tspan></text><path class="b4f04f9a-c51e-4855-a036-695f881da607" d="M279.07,95.48h73.08S272.57,243,272.4,248.69c-.32,10.44,28.81,6.49,29.81,4.94,8.67-13.45,54.08-97.45,54.08-97.45h68.27l-74.68,139a31.73,31.73,0,0,1-27.95,16.71H203.69a24.46,24.46,0,0,1-21.54-36h0Z"/><polygon class="b4f04f9a-c51e-4855-a036-695f881da607" points="457.18 95.48 424.56 156.18 456.67 156.18 373.01 311.89 451.9 311.89 535.56 156.18 610.83 156.18 643.44 95.48 457.18 95.48"/><polygon class="b3328da3-e804-4201-aa33-65f0f3a87539" points="575.62 170.17 702.96 170.17 683.98 204.52 611.85 204.34 601.81 223.02 650.96 223.02 633.27 255.93 584.13 255.93 573.24 276.19 645.99 276.19 626.81 311.89 499.47 311.89 575.62 170.17"/><polygon class="b3328da3-e804-4201-aa33-65f0f3a87539" points="705.02 204.34 723.38 170.17 851.03 170.17 832.67 204.34 726.56 276.19 794.06 276.19 774.88 311.89 647.24 311.89 667.15 275.9 770.94 204.26 705.02 204.34"/><path class="b3328da3-e804-4201-aa33-65f0f3a87539" d="M281.91,40.8,280,39.67a9.71,9.71,0,0,0-12.06,1.78A10.14,10.14,0,0,0,263.75,29l-1.91-1.12a9.68,9.68,0,0,0-9.14-.38A10,10,0,0,0,248,20.84l-1.91-1.13a9.76,9.76,0,0,0-13.46,3.68L193.28,92.83c-2.58-.44-5.2-.73-7.85-1L163.89,13.16a9.83,9.83,0,0,0-12.14-7l-2.13.6a9.94,9.94,0,0,0-6.7,6.5,9.73,9.73,0,0,0-9-2l-2.12.6a10,10,0,0,0-7.2,9.64A9.81,9.81,0,0,0,113,16.09l-2.13.61A10.07,10.07,0,0,0,104,29.07l21.7,79.28c-2.11,1.51-4.17,3.08-6.15,4.76L52.51,73.65a9.75,9.75,0,0,0-13.46,3.68l-1.11,2a10.18,10.18,0,0,0,.3,10.51,9.8,9.8,0,0,0-9.08,5l-1.11,2a10.19,10.19,0,0,0,.39,10.65,9.81,9.81,0,0,0-9.24,5l-1.11,1.95A10.16,10.16,0,0,0,21.7,128L88.09,167.1a95.37,95.37,0,0,0-1.42,10.78L14.1,197.21a10.07,10.07,0,0,0-7,12.26l.56,2.17a10,10,0,0,0,6.24,6.93,10.18,10.18,0,0,0-2.12,9.14l.56,2.18a9.88,9.88,0,0,0,9.4,7.49,10.13,10.13,0,0,0-4.6,11.23l.56,2.17a9.84,9.84,0,0,0,12,7.18l73.11-19.47q2.59,3.81,5.55,7.34L70.42,312.76A10.15,10.15,0,0,0,74,326.48l1.92,1.13a9.69,9.69,0,0,0,9.33.28,10.07,10.07,0,0,0,4.91,8.1l1.91,1.12a9.69,9.69,0,0,0,10.7-.56,10.1,10.1,0,0,0,4.87,9.72l1.91,1.13A9.75,9.75,0,0,0,123,343.72L160.84,277l1.32.26,85.42-153.38c-.27-.31-.56-.61-.83-.92l38.77-68.44A10.13,10.13,0,0,0,281.91,40.8Zm-85.67,57a11.94,11.94,0,0,1,3.56.54L202,95.1a6.63,6.63,0,0,1-.62-7.51l32.86-56.91a6.64,6.64,0,1,1,11.51,6.64L212.88,94.23a6.63,6.63,0,0,1-6.83,3.22l-1.85,3.43a11.89,11.89,0,1,1-8-3.07Zm-43.4-82.7A6.88,6.88,0,0,1,161.1,20l17.56,64.54a6.59,6.59,0,0,1-.91,5.45c1.12,3.54,4.06,13.09-.68,21.15a12.19,12.19,0,0,1,3.57,2.51,11.9,11.9,0,1,1-17-.31,11.7,11.7,0,0,1,7.23-3.32c3.64-5.47,1.36-14,.31-17.25a6.91,6.91,0,0,1-5.46-5L148.13,23.26A6.56,6.56,0,0,1,152.84,15.11ZM134,20.9a6.89,6.89,0,0,1,8.26,4.9l17.55,64.54a6.57,6.57,0,0,1-2.42,7.06,84.82,84.82,0,0,1,2.7,12.36c.31,2-1.22,4.34-1.79,9.82-.41,3.91,2.92,12.79,4.87,17.57a12.32,12.32,0,0,1,8.34,3.67,11.9,11.9,0,1,1-17-.31,11.81,11.81,0,0,1,3.72-2.46c-6.08-12.36-3.69-23.84-3.15-28.23.28-2.32-.89-7-2.16-11.19a6.92,6.92,0,0,1-6.05-5L129.26,29.05A6.56,6.56,0,0,1,134,20.9ZM110.23,33.81a6.57,6.57,0,0,1,4.71-8.15,6.89,6.89,0,0,1,8.26,4.9L140.75,95.1a6.57,6.57,0,0,1-2.55,7.14l1.16,3.8a12.24,12.24,0,0,1,9.15,3.66,11.9,11.9,0,1,1-17-.31,11.61,11.61,0,0,1,2.93-2.1l-.78-3.9a6.94,6.94,0,0,1-5.85-5Zm-68.6,47a6.64,6.64,0,0,1,9.08-2.43l56.91,32.86a6.58,6.58,0,0,1,3.17,4.48c3.22,1.68,11.88,6.3,14.22,15.33a11.91,11.91,0,1,1-5.05,3.65c-1.3-6.43-8.83-10.83-11.78-12.33a6.65,6.65,0,0,1-7.21.38L44.06,89.92A6.64,6.64,0,0,1,41.63,80.84ZM32.7,98.34a6.63,6.63,0,0,1,9.07-2.43l56.91,32.85a6.65,6.65,0,0,1,3.25,6.69,82.62,82.62,0,0,1,10.45,6.76c1.61,1.2,2.18,3.92,5.6,8.18,2.43,3,10.88,6.91,15.55,8.88a12,12,0,1,1-2.78,4.16C118,159.08,111.64,149.31,109,145.85c-1.43-1.84-5.47-4.29-9.26-6.33a6.64,6.64,0,0,1-7.66.76L35.13,107.42A6.64,6.64,0,0,1,32.7,98.34Zm49.59,58.82L25.38,124.31A6.64,6.64,0,0,1,32,112.8l56.91,32.85a6.64,6.64,0,0,1,3.22,6.83l3.43,1.85a11.76,11.76,0,1,1-2.53,4.4l-3.25-2.19A6.61,6.61,0,0,1,82.29,157.16Zm-70.63,51a6.56,6.56,0,0,1,4.69-8l62.93-16.33a6.58,6.58,0,0,1,5.35,1c3.44-1.05,12.75-3.8,20.7.95a11.8,11.8,0,1,1-1,6.08c-5.41-3.63-13.77-1.51-16.89-.52a6.54,6.54,0,0,1-4.8,5.27L19.7,212.83A6.61,6.61,0,0,1,11.66,208.11Zm5.92,18.55a6.56,6.56,0,0,1,4.69-8l62.92-16.32a6.59,6.59,0,0,1,7,2.46,82.41,82.41,0,0,1,12-2.48c2-.27,4.28,1.25,9.65,1.89,3.82.45,12.47-2.69,17.13-4.53a11.68,11.68,0,0,1,3.47-8.12,11.81,11.81,0,1,1-2.53,13c-12,5.79-23.28,3.29-27.58,2.71-2.28-.3-6.83.77-10.92,2a6.53,6.53,0,0,1-4.86,5.85L25.62,231.38A6.61,6.61,0,0,1,17.58,226.66Zm86.64,3.61a12.07,12.07,0,0,1-2.1-2.88l-3.81.7a6.53,6.53,0,0,1-4.85,5.66L30.54,250.08a6.59,6.59,0,0,1-3.35-12.74L90.11,221a6.61,6.61,0,0,1,7,2.59l3.69-1.08a11.8,11.8,0,1,1,3.39,7.75Zm-18.1,87.39A6.59,6.59,0,0,1,74.7,311.1l32.6-56.25a6.52,6.52,0,0,1,4.45-3.13C113.42,248.53,118,240,127,237.66a11.78,11.78,0,1,1,3.61,5c-6.38,1.29-10.75,8.73-12.23,11.64a6.55,6.55,0,0,1,.37,7.13Zm71.81-47.88a11.74,11.74,0,0,1-3.53-.53l-2.18,3.21a6.51,6.51,0,0,1,.62,7.42l-32.6,56.25a6.59,6.59,0,0,1-11.42-6.57l32.6-56.24a6.58,6.58,0,0,1,6.78-3.18l1.83-3.39a11.8,11.8,0,1,1,7.9,3Zm5.48-37a11.85,11.85,0,0,1-4.35-.83c-4.32,12.62-14,18.88-17.45,21.54-1.82,1.4-4.25,5.4-6.27,9.15a6.52,6.52,0,0,1,.74,7.57l-32.59,56.24a6.59,6.59,0,0,1-11.42-6.57l32.59-56.24a6.6,6.6,0,0,1,6.64-3.21,81.62,81.62,0,0,1,6.7-10.32c1.2-1.6,3.9-2.16,8.12-5.54,3-2.4,6.85-10.76,8.81-15.37a11.81,11.81,0,1,1,8.48,3.58ZM190.72,159a11.9,11.9,0,1,1,4.38-22.95c4.35-12.77,14.12-19.11,17.59-21.79,1.83-1.43,4.28-5.47,6.32-9.26a6.62,6.62,0,0,1-.75-7.66l32.85-56.91a6.64,6.64,0,0,1,11.51,6.64L229.77,104a6.65,6.65,0,0,1-6.69,3.25,81.47,81.47,0,0,1-6.76,10.44c-1.2,1.62-3.92,2.19-8.18,5.61-3,2.43-6.9,10.88-8.88,15.55A11.89,11.89,0,0,1,190.72,159Zm89.4-103-32.85,56.91a6.66,6.66,0,0,1-4.48,3.17c-1.69,3.22-6.3,11.88-15.34,14.22a11.91,11.91,0,1,1-3.65-5c6.43-1.3,10.84-8.83,12.34-11.78a6.63,6.63,0,0,1-.38-7.21l32.85-56.91A6.65,6.65,0,1,1,280.12,56Z"/><path class="b3328da3-e804-4201-aa33-65f0f3a87539" d="M222.7,134.37a6.58,6.58,0,1,1-6.58-6.58A6.58,6.58,0,0,1,222.7,134.37Z"/><circle class="b3328da3-e804-4201-aa33-65f0f3a87539" cx="190.52" cy="146.97" r="6.58" transform="translate(-1.36 1.78) rotate(-0.53)"/><path class="b3328da3-e804-4201-aa33-65f0f3a87539" d="M202.42,109.6a6.59,6.59,0,1,1-6.58-6.59A6.59,6.59,0,0,1,202.42,109.6Z"/><path class="b3328da3-e804-4201-aa33-65f0f3a87539" d="M129,135.49a6.59,6.59,0,1,1-6.59,6.58A6.59,6.59,0,0,1,129,135.49Z"/><path class="b3328da3-e804-4201-aa33-65f0f3a87539" d="M141.6,161.09a6.59,6.59,0,1,1-6.58,6.59A6.58,6.58,0,0,1,141.6,161.09Z"/><path class="b3328da3-e804-4201-aa33-65f0f3a87539" d="M104.23,155.78a6.58,6.58,0,1,1-6.58,6.58A6.58,6.58,0,0,1,104.23,155.78Z"/><path class="b3328da3-e804-4201-aa33-65f0f3a87539" d="M111.24,185.83a6.53,6.53,0,1,1,0,9.22A6.52,6.52,0,0,1,111.24,185.83Z"/><path class="b3328da3-e804-4201-aa33-65f0f3a87539" d="M138,195.16a6.53,6.53,0,1,1,0,9.22A6.51,6.51,0,0,1,138,195.16Z"/><path class="b3328da3-e804-4201-aa33-65f0f3a87539" d="M108,217.35a6.53,6.53,0,1,1,0,9.22A6.52,6.52,0,0,1,108,217.35Z"/><path class="b3328da3-e804-4201-aa33-65f0f3a87539" d="M131.27,233.37a6.53,6.53,0,1,1,6.53,6.51A6.51,6.51,0,0,1,131.27,233.37Z"/><path class="b3328da3-e804-4201-aa33-65f0f3a87539" d="M156.67,220.93a6.53,6.53,0,1,1,6.53,6.5A6.53,6.53,0,0,1,156.67,220.93Z"/><path class="b3328da3-e804-4201-aa33-65f0f3a87539" d="M151.39,257.86a6.53,6.53,0,1,1,6.53,6.51A6.52,6.52,0,0,1,151.39,257.86Z"/><path class="b3328da3-e804-4201-aa33-65f0f3a87539" d="M176.65,117.26a6.58,6.58,0,1,1-9.41-.17A6.65,6.65,0,0,1,176.65,117.26Z"/><path class="b3328da3-e804-4201-aa33-65f0f3a87539" d="M167.49,144.42a6.58,6.58,0,1,1-9.42-.17A6.65,6.65,0,0,1,167.49,144.42Z"/><path class="b3328da3-e804-4201-aa33-65f0f3a87539" d="M144.4,113.46a6.59,6.59,0,1,1-9.42-.17A6.66,6.66,0,0,1,144.4,113.46Z"/></g></svg>