<svg id="Layer_1" data-name="Layer 1" xmlns="http://www.w3.org/2000/svg" viewBox="0 0 224.62 197.49"><circle cx="112.31" cy="100.47" r="85.24" style="fill:#878787"/><path d="M156.9,27.72A85.25,85.25,0,0,1,40.48,146.28,85.24,85.24,0,1,0,156.9,27.72Z" style="fill:#706f6f"/><path d="M38.65,109.46A79.13,79.13,0,0,1,180.52,61.22,79.14,79.14,0,1,0,49.17,148.9,78.8,78.8,0,0,1,38.65,109.46Z" style="fill:#c6c6c6"/><ellipse cx="80.9" cy="84.6" rx="6.28" ry="10.59" style="fill:#2c2c2c"/><path d="M150,84.61c0,5.84-2.82,10.58-6.29,10.58s-6.28-4.74-6.28-10.58S140.24,74,143.7,74,150,78.76,150,84.61Z" style="fill:#2c2c2c"/><path d="M147.24,138.35a2.82,2.82,0,0,0,4.58-3.07,42.73,42.73,0,0,0-79-.78,2.81,2.81,0,0,0,4.52,3.1C89.82,125.5,116.34,108.3,147.24,138.35Z" style="fill:#ededed"/><rect x="82.18" y="49.71" width="8.08" height="26.97" transform="translate(-19.43 79.47) rotate(-45)" style="fill:#2c2c2c"/><rect x="124.91" y="59.15" width="26.97" height="8.08" transform="translate(-4.15 116.37) rotate(-45)" style="fill:#2c2c2c"/></svg>