<svg id="Layer_1" data-name="Layer 1" xmlns="http://www.w3.org/2000/svg" viewBox="0 0 224.62 197.49"><circle cx="110.96" cy="100.47" r="85.24" transform="translate(-5.98 193.9) rotate(-80.78)" style="fill:#ff4343"/><path d="M155.56,27.72A85.25,85.25,0,0,1,39.14,146.28,85.24,85.24,0,1,0,155.56,27.72Z" style="fill:#ff4242"/><path d="M37.31,109.46A79.13,79.13,0,0,1,179.18,61.22,79.14,79.14,0,1,0,47.83,148.9,78.75,78.75,0,0,1,37.31,109.46Z" style="fill:#ff5c5c"/><ellipse cx="79.56" cy="84.61" rx="6.28" ry="10.59" style="fill:#2c2c2c"/><path d="M148.65,84.61c0,5.84-2.82,10.58-6.29,10.58s-6.28-4.74-6.28-10.58S138.9,74,142.36,74,148.65,78.76,148.65,84.61Z" style="fill:#2c2c2c"/><path d="M145.9,138.35a2.82,2.82,0,0,0,4.58-3.07,42.73,42.73,0,0,0-79-.78A2.81,2.81,0,0,0,76,137.6C88.48,125.5,115,108.3,145.9,138.35Z" style="fill:#654735"/><rect x="80.83" y="49.71" width="8.08" height="26.97" transform="translate(-19.83 78.52) rotate(-45)" style="fill:#2c2c2c"/><rect x="133.01" y="49.71" width="8.08" height="26.97" transform="translate(84.83 -78.4) rotate(45)" style="fill:#2c2c2c"/></svg>