<svg id="Layer_1" data-name="Layer 1" xmlns="http://www.w3.org/2000/svg" viewBox="0 0 224.62 197.49"><circle cx="107.33" cy="96.71" r="85.24" transform="translate(-36.95 104.22) rotate(-45)" style="fill:#878787"/><path d="M151.92,24A85.25,85.25,0,0,1,35.5,142.52,85.24,85.24,0,1,0,151.92,24Z" style="fill:#706f6f"/><path d="M33.68,105.7A79.13,79.13,0,0,1,175.54,57.46,79.14,79.14,0,1,0,44.19,145.14,78.75,78.75,0,0,1,33.68,105.7Z" style="fill:#c6c6c6"/><rect x="61.41" y="122.26" width="87.32" height="7.15" rx="3.51" style="fill:#ededed"/><path d="M82,81.25c0,5.85-2.82,10.59-6.28,10.59s-6.28-4.74-6.28-10.59,2.81-10.58,6.28-10.58S82,75.41,82,81.25Z" style="fill:#2c2c2c"/><path d="M144.81,81.25c0,5.85-2.81,10.59-6.28,10.59s-6.28-4.74-6.28-10.59,2.81-10.58,6.28-10.58S144.81,75.41,144.81,81.25Z" style="fill:#2c2c2c"/></svg>