<svg id="Layer_1" data-name="Layer 1" xmlns="http://www.w3.org/2000/svg" viewBox="0 0 224.62 197.49"><circle cx="107.13" cy="100.27" r="85.24" transform="translate(-39.52 105.12) rotate(-45)" style="fill:#ffd053"/><path d="M151.72,27.52A85.25,85.25,0,0,1,35.3,146.08,85.24,85.24,0,1,0,151.72,27.52Z" style="fill:#ffc448"/><path d="M33.48,109.26A79.13,79.13,0,0,1,175.34,61,79.14,79.14,0,1,0,44,148.7,78.75,78.75,0,0,1,33.48,109.26Z" style="fill:#ffd77a"/><rect x="65.13" y="120.77" width="87.32" height="7.15" rx="3.51" style="fill:#654735"/><path d="M82,85c0,5.85-2.82,10.59-6.28,10.59S69.45,90.86,69.45,85s2.81-10.58,6.28-10.58S82,79.16,82,85Z" style="fill:#2c2c2c"/><path d="M144.81,85c0,5.85-2.81,10.59-6.28,10.59s-6.28-4.74-6.28-10.59,2.81-10.58,6.28-10.58S144.81,79.16,144.81,85Z" style="fill:#2c2c2c"/></svg>