<svg id="Layer_1" data-name="Layer 1" xmlns="http://www.w3.org/2000/svg" viewBox="0 0 224.62 197.49"><circle cx="105.89" cy="100.47" r="85.24" transform="translate(-40.03 104.3) rotate(-45)" style="fill:#76b7eb"/><path d="M150.48,27.72A85.25,85.25,0,0,1,34.06,146.28,85.24,85.24,0,1,0,150.48,27.72Z" style="fill:#4aaae2"/><path d="M32.23,109.46A79.13,79.13,0,0,1,174.1,61.22,79.14,79.14,0,1,0,42.75,148.9,78.75,78.75,0,0,1,32.23,109.46Z" style="fill:#8cc9f3"/><path d="M80.76,79.79c0,5.85-2.81,10.58-6.28,10.58S68.2,85.64,68.2,79.79,71,69.2,74.48,69.2,80.76,73.94,80.76,79.79Z" style="fill:#2c2c2c"/><path d="M143.57,79.79c0,5.85-2.81,10.58-6.28,10.58S131,85.64,131,79.79s2.81-10.59,6.28-10.59S143.57,73.94,143.57,79.79Z" style="fill:#2c2c2c"/><path d="M48.61,108.53a57.65,57.65,0,0,0,114.55,0Z" style="fill:#71523f"/><path d="M66.32,143.91a57.6,57.6,0,0,0,77.78,1.24l-.53-1.24C105.11,125.16,66.85,143.65,66.32,143.91Z" style="fill:#ff6669"/></svg>