<svg id="Layer_1" data-name="Layer 1" xmlns="http://www.w3.org/2000/svg" viewBox="0 0 224.62 197.49"><circle cx="105.21" cy="102.9" r="85.24" transform="translate(-41.95 104.53) rotate(-45)" style="fill:#878787"/><path d="M149.81,30.15A85.25,85.25,0,0,1,33.38,148.71,85.25,85.25,0,1,0,149.81,30.15Z" style="fill:#706f6f"/><path d="M31.56,111.89A79.14,79.14,0,0,1,173.43,63.65,79.15,79.15,0,1,0,42.07,151.34,78.89,78.89,0,0,1,31.56,111.89Z" style="fill:#c6c6c6"/><path d="M80.09,82.22c0,5.85-2.81,10.59-6.28,10.59s-6.28-4.74-6.28-10.59,2.81-10.59,6.28-10.59S80.09,76.37,80.09,82.22Z" style="fill:#2c2c2c"/><path d="M142.89,82.22c0,5.85-2.81,10.59-6.28,10.59s-6.28-4.74-6.28-10.59,2.81-10.59,6.28-10.59S142.89,76.37,142.89,82.22Z" style="fill:#2c2c2c"/><path d="M47.94,111a57.65,57.65,0,0,0,114.55,0Z" style="fill:#575756"/><path d="M65.65,146.34a57.59,57.59,0,0,0,77.77,1.24l-.53-1.24C104.43,127.59,66.17,146.08,65.65,146.34Z" style="fill:#ededed"/></svg>