<svg id="Layer_1" data-name="Layer 1" xmlns="http://www.w3.org/2000/svg" viewBox="0 0 224.62 197.49"><circle cx="107.83" cy="105.04" r="85.24" transform="translate(-42.69 107.01) rotate(-45)" style="fill:#67b82f"/><path d="M152.42,32.29A85.25,85.25,0,0,1,36,150.85,85.24,85.24,0,1,0,152.42,32.29Z" style="fill:#50ab37"/><path d="M34.17,114A79.13,79.13,0,0,1,176,65.79,79.14,79.14,0,1,0,44.69,153.47,78.75,78.75,0,0,1,34.17,114Z" style="fill:#7bc228"/><path d="M72.89,117.93A2.82,2.82,0,0,0,68.31,121a42.73,42.73,0,0,0,79,.79,2.81,2.81,0,0,0-4.54-3.11C130.31,130.78,103.83,148,72.89,117.93Z" style="fill:#1d1d1b"/><path d="M82.7,89.78c0,5.85-2.81,10.59-6.28,10.59s-6.28-4.74-6.28-10.59S73,79.2,76.42,79.2,82.7,83.94,82.7,89.78Z" style="fill:#2c2c2c"/><path d="M145.51,89.78c0,5.85-2.81,10.59-6.28,10.59S133,95.63,133,89.78s2.81-10.58,6.28-10.58S145.51,83.94,145.51,89.78Z" style="fill:#2c2c2c"/></svg>