<svg id="Layer_1" data-name="Layer 1" xmlns="http://www.w3.org/2000/svg" viewBox="0 0 224.62 197.49"><circle cx="116.79" cy="101.48" r="85.24" transform="translate(-37.55 112.31) rotate(-45)" style="fill:#878787"/><path d="M161.39,28.73A85.25,85.25,0,0,1,45,147.29,85.25,85.25,0,1,0,161.39,28.73Z" style="fill:#706f6f"/><path d="M43.14,110.47A79.14,79.14,0,0,1,185,62.23,79.15,79.15,0,1,0,53.65,149.92,78.89,78.89,0,0,1,43.14,110.47Z" style="fill:#c6c6c6"/><path d="M81.85,114.38a2.81,2.81,0,0,0-4.57,3.06,42.72,42.72,0,0,0,79,.79,2.81,2.81,0,0,0-4.54-3.1C139.27,127.22,112.79,144.43,81.85,114.38Z" style="fill:#ededed"/><path d="M91.47,86c0,5.84-2.81,10.58-6.28,10.58S78.91,91.87,78.91,86s2.81-10.59,6.28-10.59S91.47,80.18,91.47,86Z" style="fill:#2c2c2c"/><path d="M154.27,86c0,5.84-2.81,10.58-6.28,10.58s-6.28-4.74-6.28-10.58,2.82-10.59,6.28-10.59S154.27,80.18,154.27,86Z" style="fill:#2c2c2c"/></svg>