<svg id="Layer_1" data-name="Layer 1" xmlns="http://www.w3.org/2000/svg" viewBox="0 0 224.62 197.49"><circle cx="106.65" cy="100.27" r="85.24" style="fill:#ff6d15"/><path d="M151.25,28A85.25,85.25,0,0,1,34.83,146.58,85.24,85.24,0,1,0,151.25,28Z" style="fill:#ff6412"/><path d="M33,109.24A79.14,79.14,0,0,1,174.87,61,79.14,79.14,0,1,0,43.52,148.7,78.75,78.75,0,0,1,33,109.24Z" style="fill:#ff8249"/><path d="M81.53,79.58c0,5.85-2.81,10.59-6.28,10.59S69,85.43,69,79.58,71.78,69,75.25,69,81.53,73.74,81.53,79.58Z" style="fill:#2c2c2c"/><path d="M144.34,79.58c0,5.85-2.81,10.59-6.28,10.59s-6.28-4.74-6.28-10.59S134.59,69,138.09,69,144.34,73.74,144.34,79.58Z" style="fill:#2c2c2c"/><path d="M130.15,45.77l2.68.77c1.92.53,3.73,1,5.47,1.64a49.44,49.44,0,0,1,7.19,3.06A42.38,42.38,0,0,1,152,55.45a64.88,64.88,0,0,1,6.18,5.66.37.37,0,0,0,.52,0,.41.41,0,0,0,.11-.28,16.23,16.23,0,0,0-3.33-8.7A21.31,21.31,0,0,0,148.25,46a22.4,22.4,0,0,0-8.71-2.5h-.36a18.9,18.9,0,0,0-9.09,1.58.37.37,0,0,0-.21.37A.34.34,0,0,0,130.15,45.77Z" style="fill:#3f3e40"/><path d="M83.16,45.77l-2.68.77c-1.92.53-3.73,1-5.48,1.64a49.33,49.33,0,0,0-7.18,3.06,41.9,41.9,0,0,0-6.49,4.21,63.69,63.69,0,0,0-6.18,5.66.38.38,0,0,1-.53,0,.36.36,0,0,1-.1-.28,16.16,16.16,0,0,1,3.33-8.7A21.21,21.21,0,0,1,65.09,46a22.3,22.3,0,0,1,8.71-2.5h.35a19,19,0,0,1,9.09,1.61.4.4,0,0,1,.21.37A.38.38,0,0,1,83.16,45.77Z" style="fill:#3f3e40"/><path d="M138.09,138c-1.82-18.82-15.23-33.43-31.48-33.39S77,119.31,75.25,138.14Z" style="fill:#575756"/><path d="M75.25,138.14s26.44-26.53,62.81-.14Z" style="fill:#ededed"/></svg>