<svg id="Layer_1" data-name="Layer 1" xmlns="http://www.w3.org/2000/svg" viewBox="0 0 224.62 197.49"><circle cx="112.31" cy="94.99" r="85.24" style="fill:#878787"/><path d="M156.9,22.74A85.25,85.25,0,0,1,40.48,141.3,85.24,85.24,0,1,0,156.9,22.74Z" style="fill:#706f6f"/><path d="M38.65,104A79.14,79.14,0,0,1,180.52,55.73,79.14,79.14,0,1,0,49.17,143.42,78.85,78.85,0,0,1,38.65,104Z" style="fill:#c6c6c6"/><path d="M87.18,74.3c0,5.85-2.81,10.59-6.28,10.59s-6.28-4.74-6.28-10.59,2.81-10.58,6.28-10.58S87.18,68.46,87.18,74.3Z" style="fill:#2c2c2c"/><path d="M150,74.3c0,5.85-2.81,10.59-6.28,10.59s-6.28-4.74-6.28-10.59,2.81-10.58,6.31-10.58S150,68.46,150,74.3Z" style="fill:#2c2c2c"/><path d="M135.8,40.49l2.68.77c1.92.53,3.73,1,5.47,1.64A49,49,0,0,1,151.14,46a41.9,41.9,0,0,1,6.49,4.21,63.69,63.69,0,0,1,6.18,5.66.39.39,0,0,0,.53,0,.37.37,0,0,0,.1-.28,16.16,16.16,0,0,0-3.33-8.7,21.1,21.1,0,0,0-7.21-6.13,22.3,22.3,0,0,0-8.71-2.5h-.36a18.83,18.83,0,0,0-9.09,1.58.38.38,0,0,0-.21.37A.36.36,0,0,0,135.8,40.49Z" style="fill:#3f3e40"/><path d="M88.81,40.49l-2.68.77c-1.92.53-3.73,1-5.48,1.64A49.33,49.33,0,0,0,73.47,46,42.38,42.38,0,0,0,67,50.17a64.88,64.88,0,0,0-6.18,5.66.37.37,0,0,1-.52,0,.43.43,0,0,1-.11-.28,16.31,16.31,0,0,1,3.33-8.7,21.3,21.3,0,0,1,7.24-6.13,22.4,22.4,0,0,1,8.71-2.5h.35a18.81,18.81,0,0,1,9.09,1.61.39.39,0,0,1,.21.37A.35.35,0,0,1,88.81,40.49Z" style="fill:#3f3e40"/><path d="M143.74,132.72c-1.82-18.82-15.23-33.43-31.48-33.39S82.64,114,80.9,132.86Z" style="fill:#575756"/><path d="M80.9,132.86s26.44-26.53,62.81-.14Z" style="fill:#ededed"/></svg>